<svg xmlns="http://www.w3.org/2000/svg" viewBox="0 0 720 220" width="720" height="220" font-family="sans-serif"><rect width="100%" height="100%" fill="#fff"/><text x="60" y="18" font-size="13" font-weight="600">Cost (USD) by status</text><line x1="60" y1="30" x2="60" y2="160" stroke="#999"/><line x1="60" y1="160" x2="700" y2="160" stroke="#999"/><text x="54" y="164.0" font-size="10" text-anchor="end" fill="#000">$0.0000</text><text x="54" y="99.0" font-size="10" text-anchor="end" fill="#000">$0.1985</text><line x1="60" y1="95.0" x2="700" y2="95.0" stroke="#eee" stroke-dasharray="2,2"/><text x="54" y="34.0" font-size="10" text-anchor="end" fill="#000">$0.3970</text><line x1="60" y1="30.0" x2="700" y2="30.0" stroke="#eee" stroke-dasharray="2,2"/><text x="14" y="95.0" font-size="11" fill="#000" transform="rotate(-90 14 95.0)" text-anchor="middle">USD</text><rect x="65.33" y="109.21" width="21.33" height="50.79" fill="#2ca02c"/><text x="76.00" y="105.21" font-size="9" text-anchor="middle" fill="#000">$0.1551</text><rect x="86.67" y="160.00" width="21.33" height="0.00" fill="#d62728"/><text x="97.33" y="156.00" font-size="9" text-anchor="middle" fill="#000">$0.0000</text><text x="86.67" y="172" font-size="10" fill="#000" text-anchor="end" transform="rotate(-35 86.67 172)">task2-benchmarks-read…</text><rect x="118.67" y="126.98" width="21.33" height="33.02" fill="#2ca02c"/><text x="129.33" y="122.98" font-size="9" text-anchor="middle" fill="#000">$0.1008</text><rect x="140.00" y="160.00" width="21.33" height="0.00" fill="#d62728"/><text x="150.67" y="156.00" font-size="9" text-anchor="middle" fill="#000">$0.0000</text><text x="140.00" y="172" font-size="10" fill="#000" text-anchor="end" transform="rotate(-35 140.00 172)">task2-implement-webvo…</text><rect x="172.00" y="145.33" width="21.33" height="14.67" fill="#2ca02c"/><text x="182.67" y="141.33" font-size="9" text-anchor="middle" fill="#000">$0.0448</text><rect x="193.33" y="160.00" width="21.33" height="0.00" fill="#d62728"/><text x="204.00" y="156.00" font-size="9" text-anchor="middle" fill="#000">$0.0000</text><text x="193.33" y="172" font-size="10" fill="#000" text-anchor="end" transform="rotate(-35 193.33 172)">task2-implement-fail-…</text><rect x="225.33" y="128.62" width="21.33" height="31.38" fill="#2ca02c"/><text x="236.00" y="124.62" font-size="9" text-anchor="middle" fill="#000">$0.0958</text><rect x="246.67" y="59.66" width="21.33" height="100.34" fill="#d62728"/><text x="257.33" y="55.66" font-size="9" text-anchor="middle" fill="#000">$0.3064</text><text x="246.67" y="172" font-size="10" fill="#000" text-anchor="end" transform="rotate(-35 246.67 172)">task2-fix-qwen-http-4…</text><rect x="278.67" y="118.60" width="21.33" height="41.40" fill="#2ca02c"/><text x="289.33" y="114.60" font-size="9" text-anchor="middle" fill="#000">$0.1264</text><rect x="300.00" y="62.47" width="21.33" height="97.53" fill="#d62728"/><text x="310.67" y="58.47" font-size="9" text-anchor="middle" fill="#000">$0.2978</text><text x="300.00" y="172" font-size="10" fill="#000" text-anchor="end" transform="rotate(-35 300.00 172)">task2-implement-loop-…</text><rect x="332.00" y="57.87" width="21.33" height="102.13" fill="#2ca02c"/><text x="342.67" y="53.87" font-size="9" text-anchor="middle" fill="#000">$0.3119</text><rect x="353.33" y="62.69" width="21.33" height="97.31" fill="#d62728"/><text x="364.00" y="58.69" font-size="9" text-anchor="middle" fill="#000">$0.2972</text><text x="353.33" y="172" font-size="10" fill="#000" text-anchor="end" transform="rotate(-35 353.33 172)">task2-implement-no-to…</text><rect x="385.33" y="126.73" width="21.33" height="33.27" fill="#2ca02c"/><text x="396.00" y="122.73" font-size="9" text-anchor="middle" fill="#000">$0.1016</text><rect x="406.67" y="60.73" width="21.33" height="99.27" fill="#d62728"/><text x="417.33" y="56.73" font-size="9" text-anchor="middle" fill="#000">$0.3031</text><text x="406.67" y="172" font-size="10" fill="#000" text-anchor="end" transform="rotate(-35 406.67 172)">task2-migrate-plan-to…</text><rect x="438.67" y="115.33" width="21.33" height="44.67" fill="#2ca02c"/><text x="449.33" y="111.33" font-size="9" text-anchor="middle" fill="#000">$0.1364</text><rect x="460.00" y="62.09" width="21.33" height="97.91" fill="#d62728"/><text x="470.67" y="58.09" font-size="9" text-anchor="middle" fill="#000">$0.2990</text><text x="460.00" y="172" font-size="10" fill="#000" text-anchor="end" transform="rotate(-35 460.00 172)">task2-fix-scoreboard-…</text><rect x="492.00" y="115.33" width="21.33" height="44.67" fill="#2ca02c"/><text x="502.67" y="111.33" font-size="9" text-anchor="middle" fill="#000">$0.1364</text><rect x="513.33" y="61.04" width="21.33" height="98.96" fill="#d62728"/><text x="524.00" y="57.04" font-size="9" text-anchor="middle" fill="#000">$0.3022</text><text x="513.33" y="172" font-size="10" fill="#000" text-anchor="end" transform="rotate(-35 513.33 172)">task2-implement-goto-…</text><rect x="545.33" y="114.96" width="21.33" height="45.04" fill="#2ca02c"/><text x="556.00" y="110.96" font-size="9" text-anchor="middle" fill="#000">$0.1376</text><rect x="566.67" y="58.77" width="21.33" height="101.23" fill="#d62728"/><text x="577.33" y="54.77" font-size="9" text-anchor="middle" fill="#000">$0.3091</text><text x="566.67" y="172" font-size="10" fill="#000" text-anchor="end" transform="rotate(-35 566.67 172)">task2-fix-baseline-di…</text><rect x="598.67" y="105.55" width="21.33" height="54.45" fill="#2ca02c"/><text x="609.33" y="101.55" font-size="9" text-anchor="middle" fill="#000">$0.1663</text><rect x="620.00" y="61.05" width="21.33" height="98.95" fill="#d62728"/><text x="630.67" y="57.05" font-size="9" text-anchor="middle" fill="#000">$0.3022</text><text x="620.00" y="172" font-size="10" fill="#000" text-anchor="end" transform="rotate(-35 620.00 172)">task2-implement-near-…</text><rect x="652.00" y="115.28" width="21.33" height="44.72" fill="#2ca02c"/><text x="662.67" y="111.28" font-size="9" text-anchor="middle" fill="#000">$0.1366</text><rect x="673.33" y="46.96" width="21.33" height="113.04" fill="#d62728"/><text x="684.00" y="42.96" font-size="9" text-anchor="middle" fill="#000">$0.3452</text><text x="673.33" y="172" font-size="10" fill="#000" text-anchor="end" transform="rotate(-35 673.33 172)">task2-implement-fast-…</text><rect x="560" y="18" width="10" height="10" fill="#2ca02c"/><text x="574" y="26" font-size="10" fill="#000">passed</text><rect x="630" y="18" width="10" height="10" fill="#d62728"/><text x="644" y="26" font-size="10" fill="#000">failed</text></svg>