<svg xmlns="http://www.w3.org/2000/svg" viewBox="0 0 720 220" width="720" height="220" font-family="sans-serif"><rect width="100%" height="100%" fill="#fff"/><text x="60" y="18" font-size="13" font-weight="600">Cost (USD) by status</text><line x1="60" y1="30" x2="60" y2="160" stroke="#999"/><line x1="60" y1="160" x2="700" y2="160" stroke="#999"/><text x="54" y="164.0" font-size="10" text-anchor="end" fill="#000">$0.0000</text><text x="54" y="99.0" font-size="10" text-anchor="end" fill="#000">$0.1793</text><line x1="60" y1="95.0" x2="700" y2="95.0" stroke="#eee" stroke-dasharray="2,2"/><text x="54" y="34.0" font-size="10" text-anchor="end" fill="#000">$0.3587</text><line x1="60" y1="30.0" x2="700" y2="30.0" stroke="#eee" stroke-dasharray="2,2"/><text x="14" y="95.0" font-size="11" fill="#000" transform="rotate(-90 14 95.0)" text-anchor="middle">USD</text><rect x="65.82" y="103.78" width="23.27" height="56.22" fill="#2ca02c"/><text x="77.45" y="99.78" font-size="9" text-anchor="middle" fill="#000">$0.1551</text><rect x="89.09" y="160.00" width="23.27" height="0.00" fill="#d62728"/><text x="100.73" y="156.00" font-size="9" text-anchor="middle" fill="#000">$0.0000</text><text x="89.09" y="172" font-size="10" fill="#000" text-anchor="end" transform="rotate(-35 89.09 172)">task2-benchmarks-read…</text><rect x="124.00" y="123.45" width="23.27" height="36.55" fill="#2ca02c"/><text x="135.64" y="119.45" font-size="9" text-anchor="middle" fill="#000">$0.1008</text><rect x="147.27" y="160.00" width="23.27" height="0.00" fill="#d62728"/><text x="158.91" y="156.00" font-size="9" text-anchor="middle" fill="#000">$0.0000</text><text x="147.27" y="172" font-size="10" fill="#000" text-anchor="end" transform="rotate(-35 147.27 172)">task2-implement-webvo…</text><rect x="182.18" y="143.76" width="23.27" height="16.24" fill="#2ca02c"/><text x="193.82" y="139.76" font-size="9" text-anchor="middle" fill="#000">$0.0448</text><rect x="205.45" y="160.00" width="23.27" height="0.00" fill="#d62728"/><text x="217.09" y="156.00" font-size="9" text-anchor="middle" fill="#000">$0.0000</text><text x="205.45" y="172" font-size="10" fill="#000" text-anchor="end" transform="rotate(-35 205.45 172)">task2-implement-fail-…</text><rect x="240.36" y="125.26" width="23.27" height="34.74" fill="#2ca02c"/><text x="252.00" y="121.26" font-size="9" text-anchor="middle" fill="#000">$0.0958</text><rect x="263.64" y="48.93" width="23.27" height="111.07" fill="#d62728"/><text x="275.27" y="44.93" font-size="9" text-anchor="middle" fill="#000">$0.3064</text><text x="263.64" y="172" font-size="10" fill="#000" text-anchor="end" transform="rotate(-35 263.64 172)">task2-fix-qwen-http-4…</text><rect x="298.55" y="114.18" width="23.27" height="45.82" fill="#2ca02c"/><text x="310.18" y="110.18" font-size="9" text-anchor="middle" fill="#000">$0.1264</text><rect x="321.82" y="52.05" width="23.27" height="107.95" fill="#d62728"/><text x="333.45" y="48.05" font-size="9" text-anchor="middle" fill="#000">$0.2978</text><text x="321.82" y="172" font-size="10" fill="#000" text-anchor="end" transform="rotate(-35 321.82 172)">task2-implement-loop-…</text><rect x="356.73" y="46.96" width="23.27" height="113.04" fill="#2ca02c"/><text x="368.36" y="42.96" font-size="9" text-anchor="middle" fill="#000">$0.3119</text><rect x="380.00" y="52.29" width="23.27" height="107.71" fill="#d62728"/><text x="391.64" y="48.29" font-size="9" text-anchor="middle" fill="#000">$0.2972</text><text x="380.00" y="172" font-size="10" fill="#000" text-anchor="end" transform="rotate(-35 380.00 172)">task2-implement-no-to…</text><rect x="414.91" y="123.17" width="23.27" height="36.83" fill="#2ca02c"/><text x="426.55" y="119.17" font-size="9" text-anchor="middle" fill="#000">$0.1016</text><rect x="438.18" y="50.13" width="23.27" height="109.87" fill="#d62728"/><text x="449.82" y="46.13" font-size="9" text-anchor="middle" fill="#000">$0.3031</text><text x="438.18" y="172" font-size="10" fill="#000" text-anchor="end" transform="rotate(-35 438.18 172)">task2-migrate-plan-to…</text><rect x="473.09" y="110.56" width="23.27" height="49.44" fill="#2ca02c"/><text x="484.73" y="106.56" font-size="9" text-anchor="middle" fill="#000">$0.1364</text><rect x="496.36" y="51.63" width="23.27" height="108.37" fill="#d62728"/><text x="508.00" y="47.63" font-size="9" text-anchor="middle" fill="#000">$0.2990</text><text x="496.36" y="172" font-size="10" fill="#000" text-anchor="end" transform="rotate(-35 496.36 172)">task2-fix-scoreboard-…</text><rect x="531.27" y="110.55" width="23.27" height="49.45" fill="#2ca02c"/><text x="542.91" y="106.55" font-size="9" text-anchor="middle" fill="#000">$0.1364</text><rect x="554.55" y="50.46" width="23.27" height="109.54" fill="#d62728"/><text x="566.18" y="46.46" font-size="9" text-anchor="middle" fill="#000">$0.3022</text><text x="554.55" y="172" font-size="10" fill="#000" text-anchor="end" transform="rotate(-35 554.55 172)">task2-implement-goto-…</text><rect x="589.45" y="110.14" width="23.27" height="49.86" fill="#2ca02c"/><text x="601.09" y="106.14" font-size="9" text-anchor="middle" fill="#000">$0.1376</text><rect x="612.73" y="47.95" width="23.27" height="112.05" fill="#d62728"/><text x="624.36" y="43.95" font-size="9" text-anchor="middle" fill="#000">$0.3091</text><text x="612.73" y="172" font-size="10" fill="#000" text-anchor="end" transform="rotate(-35 612.73 172)">task2-fix-baseline-di…</text><rect x="647.64" y="99.73" width="23.27" height="60.27" fill="#2ca02c"/><text x="659.27" y="95.73" font-size="9" text-anchor="middle" fill="#000">$0.1663</text><rect x="670.91" y="50.48" width="23.27" height="109.52" fill="#d62728"/><text x="682.55" y="46.48" font-size="9" text-anchor="middle" fill="#000">$0.3022</text><text x="670.91" y="172" font-size="10" fill="#000" text-anchor="end" transform="rotate(-35 670.91 172)">task2-implement-near-…</text><rect x="560" y="18" width="10" height="10" fill="#2ca02c"/><text x="574" y="26" font-size="10" fill="#000">passed</text><rect x="630" y="18" width="10" height="10" fill="#d62728"/><text x="644" y="26" font-size="10" fill="#000">failed</text></svg>