<svg xmlns="http://www.w3.org/2000/svg" viewBox="0 0 720 220" width="720" height="220" font-family="sans-serif"><rect width="100%" height="100%" fill="#fff"/><text x="60" y="18" font-size="13" font-weight="600">Latency by status (p50 solid, p95 dashed)</text><line x1="60" y1="30" x2="60" y2="160" stroke="#999"/><line x1="60" y1="160" x2="700" y2="160" stroke="#999"/><text x="54" y="164.0" font-size="10" text-anchor="end" fill="#000">0</text><text x="54" y="99.0" font-size="10" text-anchor="end" fill="#000">240455</text><line x1="60" y1="95.0" x2="700" y2="95.0" stroke="#eee" stroke-dasharray="2,2"/><text x="54" y="34.0" font-size="10" text-anchor="end" fill="#000">480910</text><line x1="60" y1="30.0" x2="700" y2="30.0" stroke="#eee" stroke-dasharray="2,2"/><text x="14" y="95.0" font-size="11" fill="#000" transform="rotate(-90 14 95.0)" text-anchor="middle">ms</text><polyline points="60.00,145.96 95.56,146.32 131.11,147.52 166.67,130.70 202.22,147.77 237.78,146.68 273.33,147.35 308.89,145.55 344.44,146.17 380.00,145.89 415.56,146.49 451.11,146.24 486.67,144.45 522.22,143.62 557.78,145.22 593.33,146.09 628.89,146.48 664.44,146.98 700.00,146.85" fill="none" stroke="#2ca02c" stroke-width="2"/><circle cx="60.00" cy="145.96" r="2.5" fill="#2ca02c"/><circle cx="95.56" cy="146.32" r="2.5" fill="#2ca02c"/><circle cx="131.11" cy="147.52" r="2.5" fill="#2ca02c"/><circle cx="166.67" cy="130.70" r="2.5" fill="#2ca02c"/><circle cx="202.22" cy="147.77" r="2.5" fill="#2ca02c"/><circle cx="237.78" cy="146.68" r="2.5" fill="#2ca02c"/><circle cx="273.33" cy="147.35" r="2.5" fill="#2ca02c"/><circle cx="308.89" cy="145.55" r="2.5" fill="#2ca02c"/><circle cx="344.44" cy="146.17" r="2.5" fill="#2ca02c"/><circle cx="380.00" cy="145.89" r="2.5" fill="#2ca02c"/><circle cx="415.56" cy="146.49" r="2.5" fill="#2ca02c"/><circle cx="451.11" cy="146.24" r="2.5" fill="#2ca02c"/><circle cx="486.67" cy="144.45" r="2.5" fill="#2ca02c"/><circle cx="522.22" cy="143.62" r="2.5" fill="#2ca02c"/><circle cx="557.78" cy="145.22" r="2.5" fill="#2ca02c"/><circle cx="593.33" cy="146.09" r="2.5" fill="#2ca02c"/><circle cx="628.89" cy="146.48" r="2.5" fill="#2ca02c"/><circle cx="664.44" cy="146.98" r="2.5" fill="#2ca02c"/><circle cx="700.00" cy="146.85" r="2.5" fill="#2ca02c"/><polyline points="60.00,134.89 95.56,134.83 131.11,147.52 166.67,130.70 202.22,132.93 237.78,66.76 273.33,135.22 308.89,131.15 344.44,127.32 380.00,132.67 415.56,121.59 451.11,132.78 486.67,130.40 522.22,133.04 557.78,138.19 593.33,133.85 628.89,140.06 664.44,146.98 700.00,127.58" fill="none" stroke="#2ca02c" stroke-width="2" stroke-dasharray="4,3"/><circle cx="60.00" cy="134.89" r="2.5" fill="#2ca02c"/><circle cx="95.56" cy="134.83" r="2.5" fill="#2ca02c"/><circle cx="131.11" cy="147.52" r="2.5" fill="#2ca02c"/><circle cx="166.67" cy="130.70" r="2.5" fill="#2ca02c"/><circle cx="202.22" cy="132.93" r="2.5" fill="#2ca02c"/><circle cx="237.78" cy="66.76" r="2.5" fill="#2ca02c"/><circle cx="273.33" cy="135.22" r="2.5" fill="#2ca02c"/><circle cx="308.89" cy="131.15" r="2.5" fill="#2ca02c"/><circle cx="344.44" cy="127.32" r="2.5" fill="#2ca02c"/><circle cx="380.00" cy="132.67" r="2.5" fill="#2ca02c"/><circle cx="415.56" cy="121.59" r="2.5" fill="#2ca02c"/><circle cx="451.11" cy="132.78" r="2.5" fill="#2ca02c"/><circle cx="486.67" cy="130.40" r="2.5" fill="#2ca02c"/><circle cx="522.22" cy="133.04" r="2.5" fill="#2ca02c"/><circle cx="557.78" cy="138.19" r="2.5" fill="#2ca02c"/><circle cx="593.33" cy="133.85" r="2.5" fill="#2ca02c"/><circle cx="628.89" cy="140.06" r="2.5" fill="#2ca02c"/><circle cx="664.44" cy="146.98" r="2.5" fill="#2ca02c"/><circle cx="700.00" cy="127.58" r="2.5" fill="#2ca02c"/><polyline points="60.00,160.00 95.56,160.00 131.11,160.00 166.67,160.00 202.22,83.89 237.78,100.92 273.33,84.32 308.89,75.19 344.44,75.66 380.00,77.04 415.56,70.99 451.11,59.29 486.67,73.06 522.22,46.96 557.78,69.61 593.33,120.32 628.89,119.27 664.44,145.27 700.00,125.63" fill="none" stroke="#d62728" stroke-width="2"/><circle cx="60.00" cy="160.00" r="2.5" fill="#d62728"/><circle cx="95.56" cy="160.00" r="2.5" fill="#d62728"/><circle cx="131.11" cy="160.00" r="2.5" fill="#d62728"/><circle cx="166.67" cy="160.00" r="2.5" fill="#d62728"/><circle cx="202.22" cy="83.89" r="2.5" fill="#d62728"/><circle cx="237.78" cy="100.92" r="2.5" fill="#d62728"/><circle cx="273.33" cy="84.32" r="2.5" fill="#d62728"/><circle cx="308.89" cy="75.19" r="2.5" fill="#d62728"/><circle cx="344.44" cy="75.66" r="2.5" fill="#d62728"/><circle cx="380.00" cy="77.04" r="2.5" fill="#d62728"/><circle cx="415.56" cy="70.99" r="2.5" fill="#d62728"/><circle cx="451.11" cy="59.29" r="2.5" fill="#d62728"/><circle cx="486.67" cy="73.06" r="2.5" fill="#d62728"/><circle cx="522.22" cy="46.96" r="2.5" fill="#d62728"/><circle cx="557.78" cy="69.61" r="2.5" fill="#d62728"/><circle cx="593.33" cy="120.32" r="2.5" fill="#d62728"/><circle cx="628.89" cy="119.27" r="2.5" fill="#d62728"/><circle cx="664.44" cy="145.27" r="2.5" fill="#d62728"/><circle cx="700.00" cy="125.63" r="2.5" fill="#d62728"/><polyline points="60.00,160.00 95.56,160.00 131.11,160.00 166.67,83.88 202.22,83.89 237.78,100.92 273.33,84.32 308.89,75.19 344.44,75.66 380.00,77.04 415.56,70.99 451.11,59.29 486.67,73.06 522.22,46.96 557.78,69.61 593.33,120.32 628.89,119.27 664.44,121.49 700.00,125.63" fill="none" stroke="#d62728" stroke-width="2" stroke-dasharray="4,3"/><circle cx="60.00" cy="160.00" r="2.5" fill="#d62728"/><circle cx="95.56" cy="160.00" r="2.5" fill="#d62728"/><circle cx="131.11" cy="160.00" r="2.5" fill="#d62728"/><circle cx="166.67" cy="83.88" r="2.5" fill="#d62728"/><circle cx="202.22" cy="83.89" r="2.5" fill="#d62728"/><circle cx="237.78" cy="100.92" r="2.5" fill="#d62728"/><circle cx="273.33" cy="84.32" r="2.5" fill="#d62728"/><circle cx="308.89" cy="75.19" r="2.5" fill="#d62728"/><circle cx="344.44" cy="75.66" r="2.5" fill="#d62728"/><circle cx="380.00" cy="77.04" r="2.5" fill="#d62728"/><circle cx="415.56" cy="70.99" r="2.5" fill="#d62728"/><circle cx="451.11" cy="59.29" r="2.5" fill="#d62728"/><circle cx="486.67" cy="73.06" r="2.5" fill="#d62728"/><circle cx="522.22" cy="46.96" r="2.5" fill="#d62728"/><circle cx="557.78" cy="69.61" r="2.5" fill="#d62728"/><circle cx="593.33" cy="120.32" r="2.5" fill="#d62728"/><circle cx="628.89" cy="119.27" r="2.5" fill="#d62728"/><circle cx="664.44" cy="121.49" r="2.5" fill="#d62728"/><circle cx="700.00" cy="125.63" r="2.5" fill="#d62728"/><line x1="400" y1="23" x2="416" y2="23" stroke="#2ca02c" stroke-width="2"/><text x="420" y="26" font-size="10" fill="#000">p50 passed</text><line x1="475" y1="23" x2="491" y2="23" stroke="#2ca02c" stroke-width="2" stroke-dasharray="4,3"/><text x="495" y="26" font-size="10" fill="#000">p95 passed</text><line x1="550" y1="23" x2="566" y2="23" stroke="#d62728" stroke-width="2"/><text x="570" y="26" font-size="10" fill="#000">p50 failed</text><line x1="625" y1="23" x2="641" y2="23" stroke="#d62728" stroke-width="2" stroke-dasharray="4,3"/><text x="645" y="26" font-size="10" fill="#000">p95 failed</text><text x="60.00" y="172" font-size="10" fill="#000" text-anchor="end" transform="rotate(-35 60.00 172)">task2-benchmarks-read…</text><text x="95.56" y="172" font-size="10" fill="#000" text-anchor="end" transform="rotate(-35 95.56 172)">task2-implement-webvo…</text><text x="131.11" y="172" font-size="10" fill="#000" text-anchor="end" transform="rotate(-35 131.11 172)">task2-implement-fail-…</text><text x="166.67" y="172" font-size="10" fill="#000" text-anchor="end" transform="rotate(-35 166.67 172)">task2-fix-qwen-http-4…</text><text x="202.22" y="172" font-size="10" fill="#000" text-anchor="end" transform="rotate(-35 202.22 172)">task2-implement-loop-…</text><text x="237.78" y="172" font-size="10" fill="#000" text-anchor="end" transform="rotate(-35 237.78 172)">task2-implement-no-to…</text><text x="273.33" y="172" font-size="10" fill="#000" text-anchor="end" transform="rotate(-35 273.33 172)">task2-migrate-plan-to…</text><text x="308.89" y="172" font-size="10" fill="#000" text-anchor="end" transform="rotate(-35 308.89 172)">task2-fix-scoreboard-…</text><text x="344.44" y="172" font-size="10" fill="#000" text-anchor="end" transform="rotate(-35 344.44 172)">task2-implement-goto-…</text><text x="380.00" y="172" font-size="10" fill="#000" text-anchor="end" transform="rotate(-35 380.00 172)">task2-fix-baseline-di…</text><text x="415.56" y="172" font-size="10" fill="#000" text-anchor="end" transform="rotate(-35 415.56 172)">task2-implement-near-…</text><text x="451.11" y="172" font-size="10" fill="#000" text-anchor="end" transform="rotate(-35 451.11 172)">task2-implement-fast-…</text><text x="486.67" y="172" font-size="10" fill="#000" text-anchor="end" transform="rotate(-35 486.67 172)">task2-fix-goto-domcon…</text><text x="522.22" y="172" font-size="10" fill="#000" text-anchor="end" transform="rotate(-35 522.22 172)">task2-implement-expec…</text><text x="557.78" y="172" font-size="10" fill="#000" text-anchor="end" transform="rotate(-35 557.78 172)">task2-implement-cache…</text><text x="593.33" y="172" font-size="10" fill="#000" text-anchor="end" transform="rotate(-35 593.33 172)">task2-enforce-wall-cl…</text><text x="628.89" y="172" font-size="10" fill="#000" text-anchor="end" transform="rotate(-35 628.89 172)">task2-implement-per-s…</text><text x="664.44" y="172" font-size="10" fill="#000" text-anchor="end" transform="rotate(-35 664.44 172)">task2-implement-no-pr…</text><text x="700.00" y="172" font-size="10" fill="#000" text-anchor="end" transform="rotate(-35 700.00 172)">task2-propagate-runre…</text></svg>