<svg xmlns="http://www.w3.org/2000/svg" viewBox="0 0 720 220" width="720" height="220" font-family="sans-serif"><rect width="100%" height="100%" fill="#fff"/><text x="60" y="18" font-size="13" font-weight="600">Latency by status (p50 solid, p95 dashed)</text><line x1="60" y1="30" x2="60" y2="160" stroke="#999"/><line x1="60" y1="160" x2="700" y2="160" stroke="#999"/><text x="54" y="164.0" font-size="10" text-anchor="end" fill="#000">0</text><text x="54" y="99.0" font-size="10" text-anchor="end" fill="#000">240455</text><line x1="60" y1="95.0" x2="700" y2="95.0" stroke="#eee" stroke-dasharray="2,2"/><text x="54" y="34.0" font-size="10" text-anchor="end" fill="#000">480910</text><line x1="60" y1="30.0" x2="700" y2="30.0" stroke="#eee" stroke-dasharray="2,2"/><text x="14" y="95.0" font-size="11" fill="#000" transform="rotate(-90 14 95.0)" text-anchor="middle">ms</text><polyline points="60.00,145.96 90.48,146.32 120.95,147.52 151.43,130.70 181.90,147.77 212.38,146.68 242.86,147.35 273.33,145.55 303.81,146.17 334.29,145.89 364.76,146.49 395.24,146.24 425.71,144.45 456.19,143.62 486.67,145.22 517.14,146.09 547.62,146.48 578.10,146.98 608.57,146.85 639.05,145.47 669.52,140.76 700.00,145.94" fill="none" stroke="#2ca02c" stroke-width="2"/><circle cx="60.00" cy="145.96" r="2.5" fill="#2ca02c"/><circle cx="90.48" cy="146.32" r="2.5" fill="#2ca02c"/><circle cx="120.95" cy="147.52" r="2.5" fill="#2ca02c"/><circle cx="151.43" cy="130.70" r="2.5" fill="#2ca02c"/><circle cx="181.90" cy="147.77" r="2.5" fill="#2ca02c"/><circle cx="212.38" cy="146.68" r="2.5" fill="#2ca02c"/><circle cx="242.86" cy="147.35" r="2.5" fill="#2ca02c"/><circle cx="273.33" cy="145.55" r="2.5" fill="#2ca02c"/><circle cx="303.81" cy="146.17" r="2.5" fill="#2ca02c"/><circle cx="334.29" cy="145.89" r="2.5" fill="#2ca02c"/><circle cx="364.76" cy="146.49" r="2.5" fill="#2ca02c"/><circle cx="395.24" cy="146.24" r="2.5" fill="#2ca02c"/><circle cx="425.71" cy="144.45" r="2.5" fill="#2ca02c"/><circle cx="456.19" cy="143.62" r="2.5" fill="#2ca02c"/><circle cx="486.67" cy="145.22" r="2.5" fill="#2ca02c"/><circle cx="517.14" cy="146.09" r="2.5" fill="#2ca02c"/><circle cx="547.62" cy="146.48" r="2.5" fill="#2ca02c"/><circle cx="578.10" cy="146.98" r="2.5" fill="#2ca02c"/><circle cx="608.57" cy="146.85" r="2.5" fill="#2ca02c"/><circle cx="639.05" cy="145.47" r="2.5" fill="#2ca02c"/><circle cx="669.52" cy="140.76" r="2.5" fill="#2ca02c"/><circle cx="700.00" cy="145.94" r="2.5" fill="#2ca02c"/><polyline points="60.00,134.89 90.48,134.83 120.95,147.52 151.43,130.70 181.90,132.93 212.38,66.76 242.86,135.22 273.33,131.15 303.81,127.32 334.29,132.67 364.76,121.59 395.24,132.78 425.71,130.40 456.19,133.04 486.67,138.19 517.14,133.85 547.62,140.06 578.10,146.98 608.57,127.58 639.05,128.91 669.52,140.76 700.00,145.94" fill="none" stroke="#2ca02c" stroke-width="2" stroke-dasharray="4,3"/><circle cx="60.00" cy="134.89" r="2.5" fill="#2ca02c"/><circle cx="90.48" cy="134.83" r="2.5" fill="#2ca02c"/><circle cx="120.95" cy="147.52" r="2.5" fill="#2ca02c"/><circle cx="151.43" cy="130.70" r="2.5" fill="#2ca02c"/><circle cx="181.90" cy="132.93" r="2.5" fill="#2ca02c"/><circle cx="212.38" cy="66.76" r="2.5" fill="#2ca02c"/><circle cx="242.86" cy="135.22" r="2.5" fill="#2ca02c"/><circle cx="273.33" cy="131.15" r="2.5" fill="#2ca02c"/><circle cx="303.81" cy="127.32" r="2.5" fill="#2ca02c"/><circle cx="334.29" cy="132.67" r="2.5" fill="#2ca02c"/><circle cx="364.76" cy="121.59" r="2.5" fill="#2ca02c"/><circle cx="395.24" cy="132.78" r="2.5" fill="#2ca02c"/><circle cx="425.71" cy="130.40" r="2.5" fill="#2ca02c"/><circle cx="456.19" cy="133.04" r="2.5" fill="#2ca02c"/><circle cx="486.67" cy="138.19" r="2.5" fill="#2ca02c"/><circle cx="517.14" cy="133.85" r="2.5" fill="#2ca02c"/><circle cx="547.62" cy="140.06" r="2.5" fill="#2ca02c"/><circle cx="578.10" cy="146.98" r="2.5" fill="#2ca02c"/><circle cx="608.57" cy="127.58" r="2.5" fill="#2ca02c"/><circle cx="639.05" cy="128.91" r="2.5" fill="#2ca02c"/><circle cx="669.52" cy="140.76" r="2.5" fill="#2ca02c"/><circle cx="700.00" cy="145.94" r="2.5" fill="#2ca02c"/><polyline points="60.00,160.00 90.48,160.00 120.95,160.00 151.43,160.00 181.90,83.89 212.38,100.92 242.86,84.32 273.33,75.19 303.81,75.66 334.29,77.04 364.76,70.99 395.24,59.29 425.71,73.06 456.19,46.96 486.67,69.61 517.14,120.32 547.62,119.27 578.10,145.27 608.57,125.63 639.05,125.98 669.52,131.65 700.00,145.41" fill="none" stroke="#d62728" stroke-width="2"/><circle cx="60.00" cy="160.00" r="2.5" fill="#d62728"/><circle cx="90.48" cy="160.00" r="2.5" fill="#d62728"/><circle cx="120.95" cy="160.00" r="2.5" fill="#d62728"/><circle cx="151.43" cy="160.00" r="2.5" fill="#d62728"/><circle cx="181.90" cy="83.89" r="2.5" fill="#d62728"/><circle cx="212.38" cy="100.92" r="2.5" fill="#d62728"/><circle cx="242.86" cy="84.32" r="2.5" fill="#d62728"/><circle cx="273.33" cy="75.19" r="2.5" fill="#d62728"/><circle cx="303.81" cy="75.66" r="2.5" fill="#d62728"/><circle cx="334.29" cy="77.04" r="2.5" fill="#d62728"/><circle cx="364.76" cy="70.99" r="2.5" fill="#d62728"/><circle cx="395.24" cy="59.29" r="2.5" fill="#d62728"/><circle cx="425.71" cy="73.06" r="2.5" fill="#d62728"/><circle cx="456.19" cy="46.96" r="2.5" fill="#d62728"/><circle cx="486.67" cy="69.61" r="2.5" fill="#d62728"/><circle cx="517.14" cy="120.32" r="2.5" fill="#d62728"/><circle cx="547.62" cy="119.27" r="2.5" fill="#d62728"/><circle cx="578.10" cy="145.27" r="2.5" fill="#d62728"/><circle cx="608.57" cy="125.63" r="2.5" fill="#d62728"/><circle cx="639.05" cy="125.98" r="2.5" fill="#d62728"/><circle cx="669.52" cy="131.65" r="2.5" fill="#d62728"/><circle cx="700.00" cy="145.41" r="2.5" fill="#d62728"/><polyline points="60.00,160.00 90.48,160.00 120.95,160.00 151.43,83.88 181.90,83.89 212.38,100.92 242.86,84.32 273.33,75.19 303.81,75.66 334.29,77.04 364.76,70.99 395.24,59.29 425.71,73.06 456.19,46.96 486.67,69.61 517.14,120.32 547.62,119.27 578.10,121.49 608.57,125.63 639.05,125.98 669.52,127.34 700.00,126.16" fill="none" stroke="#d62728" stroke-width="2" stroke-dasharray="4,3"/><circle cx="60.00" cy="160.00" r="2.5" fill="#d62728"/><circle cx="90.48" cy="160.00" r="2.5" fill="#d62728"/><circle cx="120.95" cy="160.00" r="2.5" fill="#d62728"/><circle cx="151.43" cy="83.88" r="2.5" fill="#d62728"/><circle cx="181.90" cy="83.89" r="2.5" fill="#d62728"/><circle cx="212.38" cy="100.92" r="2.5" fill="#d62728"/><circle cx="242.86" cy="84.32" r="2.5" fill="#d62728"/><circle cx="273.33" cy="75.19" r="2.5" fill="#d62728"/><circle cx="303.81" cy="75.66" r="2.5" fill="#d62728"/><circle cx="334.29" cy="77.04" r="2.5" fill="#d62728"/><circle cx="364.76" cy="70.99" r="2.5" fill="#d62728"/><circle cx="395.24" cy="59.29" r="2.5" fill="#d62728"/><circle cx="425.71" cy="73.06" r="2.5" fill="#d62728"/><circle cx="456.19" cy="46.96" r="2.5" fill="#d62728"/><circle cx="486.67" cy="69.61" r="2.5" fill="#d62728"/><circle cx="517.14" cy="120.32" r="2.5" fill="#d62728"/><circle cx="547.62" cy="119.27" r="2.5" fill="#d62728"/><circle cx="578.10" cy="121.49" r="2.5" fill="#d62728"/><circle cx="608.57" cy="125.63" r="2.5" fill="#d62728"/><circle cx="639.05" cy="125.98" r="2.5" fill="#d62728"/><circle cx="669.52" cy="127.34" r="2.5" fill="#d62728"/><circle cx="700.00" cy="126.16" r="2.5" fill="#d62728"/><line x1="400" y1="23" x2="416" y2="23" stroke="#2ca02c" stroke-width="2"/><text x="420" y="26" font-size="10" fill="#000">p50 passed</text><line x1="475" y1="23" x2="491" y2="23" stroke="#2ca02c" stroke-width="2" stroke-dasharray="4,3"/><text x="495" y="26" font-size="10" fill="#000">p95 passed</text><line x1="550" y1="23" x2="566" y2="23" stroke="#d62728" stroke-width="2"/><text x="570" y="26" font-size="10" fill="#000">p50 failed</text><line x1="625" y1="23" x2="641" y2="23" stroke="#d62728" stroke-width="2" stroke-dasharray="4,3"/><text x="645" y="26" font-size="10" fill="#000">p95 failed</text><text x="60.00" y="172" font-size="10" fill="#000" text-anchor="end" transform="rotate(-35 60.00 172)">task2-benchmarks-read…</text><text x="90.48" y="172" font-size="10" fill="#000" text-anchor="end" transform="rotate(-35 90.48 172)">task2-implement-webvo…</text><text x="120.95" y="172" font-size="10" fill="#000" text-anchor="end" transform="rotate(-35 120.95 172)">task2-implement-fail-…</text><text x="151.43" y="172" font-size="10" fill="#000" text-anchor="end" transform="rotate(-35 151.43 172)">task2-fix-qwen-http-4…</text><text x="181.90" y="172" font-size="10" fill="#000" text-anchor="end" transform="rotate(-35 181.90 172)">task2-implement-loop-…</text><text x="212.38" y="172" font-size="10" fill="#000" text-anchor="end" transform="rotate(-35 212.38 172)">task2-implement-no-to…</text><text x="242.86" y="172" font-size="10" fill="#000" text-anchor="end" transform="rotate(-35 242.86 172)">task2-migrate-plan-to…</text><text x="273.33" y="172" font-size="10" fill="#000" text-anchor="end" transform="rotate(-35 273.33 172)">task2-fix-scoreboard-…</text><text x="303.81" y="172" font-size="10" fill="#000" text-anchor="end" transform="rotate(-35 303.81 172)">task2-implement-goto-…</text><text x="334.29" y="172" font-size="10" fill="#000" text-anchor="end" transform="rotate(-35 334.29 172)">task2-fix-baseline-di…</text><text x="364.76" y="172" font-size="10" fill="#000" text-anchor="end" transform="rotate(-35 364.76 172)">task2-implement-near-…</text><text x="395.24" y="172" font-size="10" fill="#000" text-anchor="end" transform="rotate(-35 395.24 172)">task2-implement-fast-…</text><text x="425.71" y="172" font-size="10" fill="#000" text-anchor="end" transform="rotate(-35 425.71 172)">task2-fix-goto-domcon…</text><text x="456.19" y="172" font-size="10" fill="#000" text-anchor="end" transform="rotate(-35 456.19 172)">task2-implement-expec…</text><text x="486.67" y="172" font-size="10" fill="#000" text-anchor="end" transform="rotate(-35 486.67 172)">task2-implement-cache…</text><text x="517.14" y="172" font-size="10" fill="#000" text-anchor="end" transform="rotate(-35 517.14 172)">task2-enforce-wall-cl…</text><text x="547.62" y="172" font-size="10" fill="#000" text-anchor="end" transform="rotate(-35 547.62 172)">task2-implement-per-s…</text><text x="578.10" y="172" font-size="10" fill="#000" text-anchor="end" transform="rotate(-35 578.10 172)">task2-implement-no-pr…</text><text x="608.57" y="172" font-size="10" fill="#000" text-anchor="end" transform="rotate(-35 608.57 172)">task2-propagate-runre…</text><text x="639.05" y="172" font-size="10" fill="#000" text-anchor="end" transform="rotate(-35 639.05 172)">task2-audit-webvoyage…</text><text x="669.52" y="172" font-size="10" fill="#000" text-anchor="end" transform="rotate(-35 669.52 172)">task2-implement-promp…</text><text x="700.00" y="172" font-size="10" fill="#000" text-anchor="end" transform="rotate(-35 700.00 172)">task2-fix-trim-histor…</text></svg>