<svg xmlns="http://www.w3.org/2000/svg" viewBox="0 0 720 220" width="720" height="220" font-family="sans-serif"><rect width="100%" height="100%" fill="#fff"/><text x="60" y="18" font-size="13" font-weight="600">Latency by status (p50 solid, p95 dashed)</text><line x1="60" y1="30" x2="60" y2="160" stroke="#999"/><line x1="60" y1="160" x2="700" y2="160" stroke="#999"/><text x="54" y="164.0" font-size="10" text-anchor="end" fill="#000">0</text><text x="54" y="99.0" font-size="10" text-anchor="end" fill="#000">240455</text><line x1="60" y1="95.0" x2="700" y2="95.0" stroke="#eee" stroke-dasharray="2,2"/><text x="54" y="34.0" font-size="10" text-anchor="end" fill="#000">480910</text><line x1="60" y1="30.0" x2="700" y2="30.0" stroke="#eee" stroke-dasharray="2,2"/><text x="14" y="95.0" font-size="11" fill="#000" transform="rotate(-90 14 95.0)" text-anchor="middle">ms</text><polyline points="60.00,145.96 97.65,146.32 135.29,147.52 172.94,130.70 210.59,147.77 248.24,146.68 285.88,147.35 323.53,145.55 361.18,146.17 398.82,145.89 436.47,146.49 474.12,146.24 511.76,144.45 549.41,143.62 587.06,145.22 624.71,146.09 662.35,146.48 700.00,146.98" fill="none" stroke="#2ca02c" stroke-width="2"/><circle cx="60.00" cy="145.96" r="2.5" fill="#2ca02c"/><circle cx="97.65" cy="146.32" r="2.5" fill="#2ca02c"/><circle cx="135.29" cy="147.52" r="2.5" fill="#2ca02c"/><circle cx="172.94" cy="130.70" r="2.5" fill="#2ca02c"/><circle cx="210.59" cy="147.77" r="2.5" fill="#2ca02c"/><circle cx="248.24" cy="146.68" r="2.5" fill="#2ca02c"/><circle cx="285.88" cy="147.35" r="2.5" fill="#2ca02c"/><circle cx="323.53" cy="145.55" r="2.5" fill="#2ca02c"/><circle cx="361.18" cy="146.17" r="2.5" fill="#2ca02c"/><circle cx="398.82" cy="145.89" r="2.5" fill="#2ca02c"/><circle cx="436.47" cy="146.49" r="2.5" fill="#2ca02c"/><circle cx="474.12" cy="146.24" r="2.5" fill="#2ca02c"/><circle cx="511.76" cy="144.45" r="2.5" fill="#2ca02c"/><circle cx="549.41" cy="143.62" r="2.5" fill="#2ca02c"/><circle cx="587.06" cy="145.22" r="2.5" fill="#2ca02c"/><circle cx="624.71" cy="146.09" r="2.5" fill="#2ca02c"/><circle cx="662.35" cy="146.48" r="2.5" fill="#2ca02c"/><circle cx="700.00" cy="146.98" r="2.5" fill="#2ca02c"/><polyline points="60.00,134.89 97.65,134.83 135.29,147.52 172.94,130.70 210.59,132.93 248.24,66.76 285.88,135.22 323.53,131.15 361.18,127.32 398.82,132.67 436.47,121.59 474.12,132.78 511.76,130.40 549.41,133.04 587.06,138.19 624.71,133.85 662.35,140.06 700.00,146.98" fill="none" stroke="#2ca02c" stroke-width="2" stroke-dasharray="4,3"/><circle cx="60.00" cy="134.89" r="2.5" fill="#2ca02c"/><circle cx="97.65" cy="134.83" r="2.5" fill="#2ca02c"/><circle cx="135.29" cy="147.52" r="2.5" fill="#2ca02c"/><circle cx="172.94" cy="130.70" r="2.5" fill="#2ca02c"/><circle cx="210.59" cy="132.93" r="2.5" fill="#2ca02c"/><circle cx="248.24" cy="66.76" r="2.5" fill="#2ca02c"/><circle cx="285.88" cy="135.22" r="2.5" fill="#2ca02c"/><circle cx="323.53" cy="131.15" r="2.5" fill="#2ca02c"/><circle cx="361.18" cy="127.32" r="2.5" fill="#2ca02c"/><circle cx="398.82" cy="132.67" r="2.5" fill="#2ca02c"/><circle cx="436.47" cy="121.59" r="2.5" fill="#2ca02c"/><circle cx="474.12" cy="132.78" r="2.5" fill="#2ca02c"/><circle cx="511.76" cy="130.40" r="2.5" fill="#2ca02c"/><circle cx="549.41" cy="133.04" r="2.5" fill="#2ca02c"/><circle cx="587.06" cy="138.19" r="2.5" fill="#2ca02c"/><circle cx="624.71" cy="133.85" r="2.5" fill="#2ca02c"/><circle cx="662.35" cy="140.06" r="2.5" fill="#2ca02c"/><circle cx="700.00" cy="146.98" r="2.5" fill="#2ca02c"/><polyline points="60.00,160.00 97.65,160.00 135.29,160.00 172.94,160.00 210.59,83.89 248.24,100.92 285.88,84.32 323.53,75.19 361.18,75.66 398.82,77.04 436.47,70.99 474.12,59.29 511.76,73.06 549.41,46.96 587.06,69.61 624.71,120.32 662.35,119.27 700.00,145.27" fill="none" stroke="#d62728" stroke-width="2"/><circle cx="60.00" cy="160.00" r="2.5" fill="#d62728"/><circle cx="97.65" cy="160.00" r="2.5" fill="#d62728"/><circle cx="135.29" cy="160.00" r="2.5" fill="#d62728"/><circle cx="172.94" cy="160.00" r="2.5" fill="#d62728"/><circle cx="210.59" cy="83.89" r="2.5" fill="#d62728"/><circle cx="248.24" cy="100.92" r="2.5" fill="#d62728"/><circle cx="285.88" cy="84.32" r="2.5" fill="#d62728"/><circle cx="323.53" cy="75.19" r="2.5" fill="#d62728"/><circle cx="361.18" cy="75.66" r="2.5" fill="#d62728"/><circle cx="398.82" cy="77.04" r="2.5" fill="#d62728"/><circle cx="436.47" cy="70.99" r="2.5" fill="#d62728"/><circle cx="474.12" cy="59.29" r="2.5" fill="#d62728"/><circle cx="511.76" cy="73.06" r="2.5" fill="#d62728"/><circle cx="549.41" cy="46.96" r="2.5" fill="#d62728"/><circle cx="587.06" cy="69.61" r="2.5" fill="#d62728"/><circle cx="624.71" cy="120.32" r="2.5" fill="#d62728"/><circle cx="662.35" cy="119.27" r="2.5" fill="#d62728"/><circle cx="700.00" cy="145.27" r="2.5" fill="#d62728"/><polyline points="60.00,160.00 97.65,160.00 135.29,160.00 172.94,83.88 210.59,83.89 248.24,100.92 285.88,84.32 323.53,75.19 361.18,75.66 398.82,77.04 436.47,70.99 474.12,59.29 511.76,73.06 549.41,46.96 587.06,69.61 624.71,120.32 662.35,119.27 700.00,121.49" fill="none" stroke="#d62728" stroke-width="2" stroke-dasharray="4,3"/><circle cx="60.00" cy="160.00" r="2.5" fill="#d62728"/><circle cx="97.65" cy="160.00" r="2.5" fill="#d62728"/><circle cx="135.29" cy="160.00" r="2.5" fill="#d62728"/><circle cx="172.94" cy="83.88" r="2.5" fill="#d62728"/><circle cx="210.59" cy="83.89" r="2.5" fill="#d62728"/><circle cx="248.24" cy="100.92" r="2.5" fill="#d62728"/><circle cx="285.88" cy="84.32" r="2.5" fill="#d62728"/><circle cx="323.53" cy="75.19" r="2.5" fill="#d62728"/><circle cx="361.18" cy="75.66" r="2.5" fill="#d62728"/><circle cx="398.82" cy="77.04" r="2.5" fill="#d62728"/><circle cx="436.47" cy="70.99" r="2.5" fill="#d62728"/><circle cx="474.12" cy="59.29" r="2.5" fill="#d62728"/><circle cx="511.76" cy="73.06" r="2.5" fill="#d62728"/><circle cx="549.41" cy="46.96" r="2.5" fill="#d62728"/><circle cx="587.06" cy="69.61" r="2.5" fill="#d62728"/><circle cx="624.71" cy="120.32" r="2.5" fill="#d62728"/><circle cx="662.35" cy="119.27" r="2.5" fill="#d62728"/><circle cx="700.00" cy="121.49" r="2.5" fill="#d62728"/><line x1="400" y1="23" x2="416" y2="23" stroke="#2ca02c" stroke-width="2"/><text x="420" y="26" font-size="10" fill="#000">p50 passed</text><line x1="475" y1="23" x2="491" y2="23" stroke="#2ca02c" stroke-width="2" stroke-dasharray="4,3"/><text x="495" y="26" font-size="10" fill="#000">p95 passed</text><line x1="550" y1="23" x2="566" y2="23" stroke="#d62728" stroke-width="2"/><text x="570" y="26" font-size="10" fill="#000">p50 failed</text><line x1="625" y1="23" x2="641" y2="23" stroke="#d62728" stroke-width="2" stroke-dasharray="4,3"/><text x="645" y="26" font-size="10" fill="#000">p95 failed</text><text x="60.00" y="172" font-size="10" fill="#000" text-anchor="end" transform="rotate(-35 60.00 172)">task2-benchmarks-read…</text><text x="97.65" y="172" font-size="10" fill="#000" text-anchor="end" transform="rotate(-35 97.65 172)">task2-implement-webvo…</text><text x="135.29" y="172" font-size="10" fill="#000" text-anchor="end" transform="rotate(-35 135.29 172)">task2-implement-fail-…</text><text x="172.94" y="172" font-size="10" fill="#000" text-anchor="end" transform="rotate(-35 172.94 172)">task2-fix-qwen-http-4…</text><text x="210.59" y="172" font-size="10" fill="#000" text-anchor="end" transform="rotate(-35 210.59 172)">task2-implement-loop-…</text><text x="248.24" y="172" font-size="10" fill="#000" text-anchor="end" transform="rotate(-35 248.24 172)">task2-implement-no-to…</text><text x="285.88" y="172" font-size="10" fill="#000" text-anchor="end" transform="rotate(-35 285.88 172)">task2-migrate-plan-to…</text><text x="323.53" y="172" font-size="10" fill="#000" text-anchor="end" transform="rotate(-35 323.53 172)">task2-fix-scoreboard-…</text><text x="361.18" y="172" font-size="10" fill="#000" text-anchor="end" transform="rotate(-35 361.18 172)">task2-implement-goto-…</text><text x="398.82" y="172" font-size="10" fill="#000" text-anchor="end" transform="rotate(-35 398.82 172)">task2-fix-baseline-di…</text><text x="436.47" y="172" font-size="10" fill="#000" text-anchor="end" transform="rotate(-35 436.47 172)">task2-implement-near-…</text><text x="474.12" y="172" font-size="10" fill="#000" text-anchor="end" transform="rotate(-35 474.12 172)">task2-implement-fast-…</text><text x="511.76" y="172" font-size="10" fill="#000" text-anchor="end" transform="rotate(-35 511.76 172)">task2-fix-goto-domcon…</text><text x="549.41" y="172" font-size="10" fill="#000" text-anchor="end" transform="rotate(-35 549.41 172)">task2-implement-expec…</text><text x="587.06" y="172" font-size="10" fill="#000" text-anchor="end" transform="rotate(-35 587.06 172)">task2-implement-cache…</text><text x="624.71" y="172" font-size="10" fill="#000" text-anchor="end" transform="rotate(-35 624.71 172)">task2-enforce-wall-cl…</text><text x="662.35" y="172" font-size="10" fill="#000" text-anchor="end" transform="rotate(-35 662.35 172)">task2-implement-per-s…</text><text x="700.00" y="172" font-size="10" fill="#000" text-anchor="end" transform="rotate(-35 700.00 172)">task2-implement-no-pr…</text></svg>