<svg xmlns="http://www.w3.org/2000/svg" viewBox="0 0 720 220" width="720" height="220" font-family="sans-serif"><rect width="100%" height="100%" fill="#fff"/><text x="60" y="18" font-size="13" font-weight="600">Pass rate over time</text><line x1="60" y1="30" x2="60" y2="160" stroke="#999"/><line x1="60" y1="160" x2="700" y2="160" stroke="#999"/><line x1="57" y1="160.0" x2="60" y2="160.0" stroke="#999"/><text x="54" y="164.0" font-size="10" text-anchor="end" fill="#000">0%</text><line x1="57" y1="95.0" x2="60" y2="95.0" stroke="#999"/><text x="54" y="99.0" font-size="10" text-anchor="end" fill="#000">50%</text><line x1="60" y1="95.0" x2="700" y2="95.0" stroke="#eee" stroke-dasharray="2,2"/><line x1="57" y1="30.0" x2="60" y2="30.0" stroke="#999"/><text x="54" y="34.0" font-size="10" text-anchor="end" fill="#000">100%</text><line x1="60" y1="30.0" x2="700" y2="30.0" stroke="#eee" stroke-dasharray="2,2"/><text x="14" y="95.0" font-size="11" fill="#000" transform="rotate(-90 14 95.0)" text-anchor="middle">pass %</text><rect x="65.33" y="73.33" width="24.89" height="86.67" fill="#2ca02c"/><text x="77.78" y="69.33" font-size="10" text-anchor="middle" fill="#000">67%</text><text x="77.78" y="172" font-size="10" fill="#000" text-anchor="end" transform="rotate(-35 77.78 172)">task2-benchmarks-read…</text><rect x="100.89" y="73.33" width="24.89" height="86.67" fill="#2ca02c"/><text x="113.33" y="69.33" font-size="10" text-anchor="middle" fill="#000">67%</text><text x="113.33" y="172" font-size="10" fill="#000" text-anchor="end" transform="rotate(-35 113.33 172)">task2-implement-webvo…</text><rect x="136.44" y="116.67" width="24.89" height="43.33" fill="#2ca02c"/><text x="148.89" y="112.67" font-size="10" text-anchor="middle" fill="#000">33%</text><text x="148.89" y="172" font-size="10" fill="#000" text-anchor="end" transform="rotate(-35 148.89 172)">task2-implement-fail-…</text><rect x="172.00" y="116.67" width="24.89" height="43.33" fill="#2ca02c"/><text x="184.44" y="112.67" font-size="10" text-anchor="middle" fill="#000">33%</text><text x="184.44" y="172" font-size="10" fill="#000" text-anchor="end" transform="rotate(-35 184.44 172)">task2-fix-qwen-http-4…</text><rect x="207.56" y="73.33" width="24.89" height="86.67" fill="#2ca02c"/><text x="220.00" y="69.33" font-size="10" text-anchor="middle" fill="#000">67%</text><text x="220.00" y="172" font-size="10" fill="#000" text-anchor="end" transform="rotate(-35 220.00 172)">task2-implement-loop-…</text><rect x="243.11" y="73.33" width="24.89" height="86.67" fill="#2ca02c"/><text x="255.56" y="69.33" font-size="10" text-anchor="middle" fill="#000">67%</text><text x="255.56" y="172" font-size="10" fill="#000" text-anchor="end" transform="rotate(-35 255.56 172)">task2-implement-no-to…</text><rect x="278.67" y="73.33" width="24.89" height="86.67" fill="#2ca02c"/><text x="291.11" y="69.33" font-size="10" text-anchor="middle" fill="#000">67%</text><text x="291.11" y="172" font-size="10" fill="#000" text-anchor="end" transform="rotate(-35 291.11 172)">task2-migrate-plan-to…</text><rect x="314.22" y="73.33" width="24.89" height="86.67" fill="#2ca02c"/><text x="326.67" y="69.33" font-size="10" text-anchor="middle" fill="#000">67%</text><text x="326.67" y="172" font-size="10" fill="#000" text-anchor="end" transform="rotate(-35 326.67 172)">task2-fix-scoreboard-…</text><rect x="349.78" y="73.33" width="24.89" height="86.67" fill="#2ca02c"/><text x="362.22" y="69.33" font-size="10" text-anchor="middle" fill="#000">67%</text><text x="362.22" y="172" font-size="10" fill="#000" text-anchor="end" transform="rotate(-35 362.22 172)">task2-implement-goto-…</text><rect x="385.33" y="73.33" width="24.89" height="86.67" fill="#2ca02c"/><text x="397.78" y="69.33" font-size="10" text-anchor="middle" fill="#000">67%</text><text x="397.78" y="172" font-size="10" fill="#000" text-anchor="end" transform="rotate(-35 397.78 172)">task2-fix-baseline-di…</text><rect x="420.89" y="73.33" width="24.89" height="86.67" fill="#2ca02c"/><text x="433.33" y="69.33" font-size="10" text-anchor="middle" fill="#000">67%</text><text x="433.33" y="172" font-size="10" fill="#000" text-anchor="end" transform="rotate(-35 433.33 172)">task2-implement-near-…</text><rect x="456.44" y="73.33" width="24.89" height="86.67" fill="#2ca02c"/><text x="468.89" y="69.33" font-size="10" text-anchor="middle" fill="#000">67%</text><text x="468.89" y="172" font-size="10" fill="#000" text-anchor="end" transform="rotate(-35 468.89 172)">task2-implement-fast-…</text><rect x="492.00" y="73.33" width="24.89" height="86.67" fill="#2ca02c"/><text x="504.44" y="69.33" font-size="10" text-anchor="middle" fill="#000">67%</text><text x="504.44" y="172" font-size="10" fill="#000" text-anchor="end" transform="rotate(-35 504.44 172)">task2-fix-goto-domcon…</text><rect x="527.56" y="73.33" width="24.89" height="86.67" fill="#2ca02c"/><text x="540.00" y="69.33" font-size="10" text-anchor="middle" fill="#000">67%</text><text x="540.00" y="172" font-size="10" fill="#000" text-anchor="end" transform="rotate(-35 540.00 172)">task2-implement-expec…</text><rect x="563.11" y="73.33" width="24.89" height="86.67" fill="#2ca02c"/><text x="575.56" y="69.33" font-size="10" text-anchor="middle" fill="#000">67%</text><text x="575.56" y="172" font-size="10" fill="#000" text-anchor="end" transform="rotate(-35 575.56 172)">task2-implement-cache…</text><rect x="598.67" y="73.33" width="24.89" height="86.67" fill="#2ca02c"/><text x="611.11" y="69.33" font-size="10" text-anchor="middle" fill="#000">67%</text><text x="611.11" y="172" font-size="10" fill="#000" text-anchor="end" transform="rotate(-35 611.11 172)">task2-enforce-wall-cl…</text><rect x="634.22" y="73.33" width="24.89" height="86.67" fill="#2ca02c"/><text x="646.67" y="69.33" font-size="10" text-anchor="middle" fill="#000">67%</text><text x="646.67" y="172" font-size="10" fill="#000" text-anchor="end" transform="rotate(-35 646.67 172)">task2-implement-per-s…</text><rect x="669.78" y="116.67" width="24.89" height="43.33" fill="#2ca02c"/><text x="682.22" y="112.67" font-size="10" text-anchor="middle" fill="#000">33%</text><text x="682.22" y="172" font-size="10" fill="#000" text-anchor="end" transform="rotate(-35 682.22 172)">task2-implement-no-pr…</text></svg>