<svg xmlns="http://www.w3.org/2000/svg" viewBox="0 0 720 220" width="720" height="220" font-family="sans-serif"><rect width="100%" height="100%" fill="#fff"/><text x="60" y="18" font-size="13" font-weight="600">Pass rate over time</text><line x1="60" y1="30" x2="60" y2="160" stroke="#999"/><line x1="60" y1="160" x2="700" y2="160" stroke="#999"/><line x1="57" y1="160.0" x2="60" y2="160.0" stroke="#999"/><text x="54" y="164.0" font-size="10" text-anchor="end" fill="#000">0%</text><line x1="57" y1="95.0" x2="60" y2="95.0" stroke="#999"/><text x="54" y="99.0" font-size="10" text-anchor="end" fill="#000">50%</text><line x1="60" y1="95.0" x2="700" y2="95.0" stroke="#eee" stroke-dasharray="2,2"/><line x1="57" y1="30.0" x2="60" y2="30.0" stroke="#999"/><text x="54" y="34.0" font-size="10" text-anchor="end" fill="#000">100%</text><line x1="60" y1="30.0" x2="700" y2="30.0" stroke="#eee" stroke-dasharray="2,2"/><text x="14" y="95.0" font-size="11" fill="#000" transform="rotate(-90 14 95.0)" text-anchor="middle">pass %</text><rect x="64.17" y="73.33" width="19.48" height="86.67" fill="#2ca02c"/><text x="73.91" y="69.33" font-size="10" text-anchor="middle" fill="#000">67%</text><text x="73.91" y="172" font-size="10" fill="#000" text-anchor="end" transform="rotate(-35 73.91 172)">task2-benchmarks-read…</text><rect x="92.00" y="73.33" width="19.48" height="86.67" fill="#2ca02c"/><text x="101.74" y="69.33" font-size="10" text-anchor="middle" fill="#000">67%</text><text x="101.74" y="172" font-size="10" fill="#000" text-anchor="end" transform="rotate(-35 101.74 172)">task2-implement-webvo…</text><rect x="119.83" y="116.67" width="19.48" height="43.33" fill="#2ca02c"/><text x="129.57" y="112.67" font-size="10" text-anchor="middle" fill="#000">33%</text><text x="129.57" y="172" font-size="10" fill="#000" text-anchor="end" transform="rotate(-35 129.57 172)">task2-implement-fail-…</text><rect x="147.65" y="116.67" width="19.48" height="43.33" fill="#2ca02c"/><text x="157.39" y="112.67" font-size="10" text-anchor="middle" fill="#000">33%</text><text x="157.39" y="172" font-size="10" fill="#000" text-anchor="end" transform="rotate(-35 157.39 172)">task2-fix-qwen-http-4…</text><rect x="175.48" y="73.33" width="19.48" height="86.67" fill="#2ca02c"/><text x="185.22" y="69.33" font-size="10" text-anchor="middle" fill="#000">67%</text><text x="185.22" y="172" font-size="10" fill="#000" text-anchor="end" transform="rotate(-35 185.22 172)">task2-implement-loop-…</text><rect x="203.30" y="73.33" width="19.48" height="86.67" fill="#2ca02c"/><text x="213.04" y="69.33" font-size="10" text-anchor="middle" fill="#000">67%</text><text x="213.04" y="172" font-size="10" fill="#000" text-anchor="end" transform="rotate(-35 213.04 172)">task2-implement-no-to…</text><rect x="231.13" y="73.33" width="19.48" height="86.67" fill="#2ca02c"/><text x="240.87" y="69.33" font-size="10" text-anchor="middle" fill="#000">67%</text><text x="240.87" y="172" font-size="10" fill="#000" text-anchor="end" transform="rotate(-35 240.87 172)">task2-migrate-plan-to…</text><rect x="258.96" y="73.33" width="19.48" height="86.67" fill="#2ca02c"/><text x="268.70" y="69.33" font-size="10" text-anchor="middle" fill="#000">67%</text><text x="268.70" y="172" font-size="10" fill="#000" text-anchor="end" transform="rotate(-35 268.70 172)">task2-fix-scoreboard-…</text><rect x="286.78" y="73.33" width="19.48" height="86.67" fill="#2ca02c"/><text x="296.52" y="69.33" font-size="10" text-anchor="middle" fill="#000">67%</text><text x="296.52" y="172" font-size="10" fill="#000" text-anchor="end" transform="rotate(-35 296.52 172)">task2-implement-goto-…</text><rect x="314.61" y="73.33" width="19.48" height="86.67" fill="#2ca02c"/><text x="324.35" y="69.33" font-size="10" text-anchor="middle" fill="#000">67%</text><text x="324.35" y="172" font-size="10" fill="#000" text-anchor="end" transform="rotate(-35 324.35 172)">task2-fix-baseline-di…</text><rect x="342.43" y="73.33" width="19.48" height="86.67" fill="#2ca02c"/><text x="352.17" y="69.33" font-size="10" text-anchor="middle" fill="#000">67%</text><text x="352.17" y="172" font-size="10" fill="#000" text-anchor="end" transform="rotate(-35 352.17 172)">task2-implement-near-…</text><rect x="370.26" y="73.33" width="19.48" height="86.67" fill="#2ca02c"/><text x="380.00" y="69.33" font-size="10" text-anchor="middle" fill="#000">67%</text><text x="380.00" y="172" font-size="10" fill="#000" text-anchor="end" transform="rotate(-35 380.00 172)">task2-implement-fast-…</text><rect x="398.09" y="73.33" width="19.48" height="86.67" fill="#2ca02c"/><text x="407.83" y="69.33" font-size="10" text-anchor="middle" fill="#000">67%</text><text x="407.83" y="172" font-size="10" fill="#000" text-anchor="end" transform="rotate(-35 407.83 172)">task2-fix-goto-domcon…</text><rect x="425.91" y="73.33" width="19.48" height="86.67" fill="#2ca02c"/><text x="435.65" y="69.33" font-size="10" text-anchor="middle" fill="#000">67%</text><text x="435.65" y="172" font-size="10" fill="#000" text-anchor="end" transform="rotate(-35 435.65 172)">task2-implement-expec…</text><rect x="453.74" y="73.33" width="19.48" height="86.67" fill="#2ca02c"/><text x="463.48" y="69.33" font-size="10" text-anchor="middle" fill="#000">67%</text><text x="463.48" y="172" font-size="10" fill="#000" text-anchor="end" transform="rotate(-35 463.48 172)">task2-implement-cache…</text><rect x="481.57" y="73.33" width="19.48" height="86.67" fill="#2ca02c"/><text x="491.30" y="69.33" font-size="10" text-anchor="middle" fill="#000">67%</text><text x="491.30" y="172" font-size="10" fill="#000" text-anchor="end" transform="rotate(-35 491.30 172)">task2-enforce-wall-cl…</text><rect x="509.39" y="73.33" width="19.48" height="86.67" fill="#2ca02c"/><text x="519.13" y="69.33" font-size="10" text-anchor="middle" fill="#000">67%</text><text x="519.13" y="172" font-size="10" fill="#000" text-anchor="end" transform="rotate(-35 519.13 172)">task2-implement-per-s…</text><rect x="537.22" y="116.67" width="19.48" height="43.33" fill="#2ca02c"/><text x="546.96" y="112.67" font-size="10" text-anchor="middle" fill="#000">33%</text><text x="546.96" y="172" font-size="10" fill="#000" text-anchor="end" transform="rotate(-35 546.96 172)">task2-implement-no-pr…</text><rect x="565.04" y="73.33" width="19.48" height="86.67" fill="#2ca02c"/><text x="574.78" y="69.33" font-size="10" text-anchor="middle" fill="#000">67%</text><text x="574.78" y="172" font-size="10" fill="#000" text-anchor="end" transform="rotate(-35 574.78 172)">task2-propagate-runre…</text><rect x="592.87" y="73.33" width="19.48" height="86.67" fill="#2ca02c"/><text x="602.61" y="69.33" font-size="10" text-anchor="middle" fill="#000">67%</text><text x="602.61" y="172" font-size="10" fill="#000" text-anchor="end" transform="rotate(-35 602.61 172)">task2-audit-webvoyage…</text><rect x="620.70" y="116.67" width="19.48" height="43.33" fill="#2ca02c"/><text x="630.43" y="112.67" font-size="10" text-anchor="middle" fill="#000">33%</text><text x="630.43" y="172" font-size="10" fill="#000" text-anchor="end" transform="rotate(-35 630.43 172)">task2-implement-promp…</text><rect x="648.52" y="116.67" width="19.48" height="43.33" fill="#2ca02c"/><text x="658.26" y="112.67" font-size="10" text-anchor="middle" fill="#000">33%</text><text x="658.26" y="172" font-size="10" fill="#000" text-anchor="end" transform="rotate(-35 658.26 172)">task2-fix-trim-histor…</text><rect x="676.35" y="116.67" width="19.48" height="43.33" fill="#2ca02c"/><text x="686.09" y="112.67" font-size="10" text-anchor="middle" fill="#000">33%</text><text x="686.09" y="172" font-size="10" fill="#000" text-anchor="end" transform="rotate(-35 686.09 172)">task2-surface-tool-er…</text></svg>