<svg xmlns="http://www.w3.org/2000/svg" viewBox="0 0 720 220" width="720" height="220" font-family="sans-serif"><rect width="100%" height="100%" fill="#fff"/><text x="60" y="18" font-size="13" font-weight="600">Cost (USD) by status</text><line x1="60" y1="30" x2="60" y2="160" stroke="#999"/><line x1="60" y1="160" x2="700" y2="160" stroke="#999"/><text x="54" y="164.0" font-size="10" text-anchor="end" fill="#000">$0.0000</text><text x="54" y="99.0" font-size="10" text-anchor="end" fill="#000">$0.0195</text><line x1="60" y1="95.0" x2="700" y2="95.0" stroke="#eee" stroke-dasharray="2,2"/><text x="54" y="34.0" font-size="10" text-anchor="end" fill="#000">$0.0390</text><line x1="60" y1="30.0" x2="700" y2="30.0" stroke="#eee" stroke-dasharray="2,2"/><text x="14" y="95.0" font-size="11" fill="#000" transform="rotate(-90 14 95.0)" text-anchor="middle">USD</text><rect x="65.82" y="160.00" width="23.27" height="0.00" fill="#2ca02c"/><text x="77.45" y="156.00" font-size="9" text-anchor="middle" fill="#000">$0.0000</text><rect x="89.09" y="122.15" width="23.27" height="37.85" fill="#d62728"/><text x="100.73" y="118.15" font-size="9" text-anchor="middle" fill="#000">$0.0113</text><text x="89.09" y="172" font-size="10" fill="#000" text-anchor="end" transform="rotate(-35 89.09 172)">master</text><rect x="124.00" y="149.31" width="23.27" height="10.69" fill="#2ca02c"/><text x="135.64" y="145.31" font-size="9" text-anchor="middle" fill="#000">$0.0032</text><rect x="147.27" y="122.15" width="23.27" height="37.85" fill="#d62728"/><text x="158.91" y="118.15" font-size="9" text-anchor="middle" fill="#000">$0.0113</text><text x="147.27" y="172" font-size="10" fill="#000" text-anchor="end" transform="rotate(-35 147.27 172)">feat-task2-benchmark-…</text><rect x="182.18" y="160.00" width="23.27" height="0.00" fill="#2ca02c"/><text x="193.82" y="156.00" font-size="9" text-anchor="middle" fill="#000">$0.0000</text><rect x="205.45" y="126.45" width="23.27" height="33.55" fill="#d62728"/><text x="217.09" y="122.45" font-size="9" text-anchor="middle" fill="#000">$0.0101</text><text x="205.45" y="172" font-size="10" fill="#000" text-anchor="end" transform="rotate(-35 205.45 172)">task2-implement-obser…</text><rect x="240.36" y="160.00" width="23.27" height="0.00" fill="#2ca02c"/><text x="252.00" y="156.00" font-size="9" text-anchor="middle" fill="#000">$0.0000</text><rect x="263.64" y="126.45" width="23.27" height="33.55" fill="#d62728"/><text x="275.27" y="122.45" font-size="9" text-anchor="middle" fill="#000">$0.0101</text><text x="263.64" y="172" font-size="10" fill="#000" text-anchor="end" transform="rotate(-35 263.64 172)">task2-scoreboard-time…</text><rect x="298.55" y="147.70" width="23.27" height="12.30" fill="#2ca02c"/><text x="310.18" y="143.70" font-size="9" text-anchor="middle" fill="#000">$0.0037</text><rect x="321.82" y="128.36" width="23.27" height="31.64" fill="#d62728"/><text x="333.45" y="124.36" font-size="9" text-anchor="middle" fill="#000">$0.0095</text><text x="321.82" y="172" font-size="10" fill="#000" text-anchor="end" transform="rotate(-35 321.82 172)">task2-implement-plan-…</text><rect x="356.73" y="125.13" width="23.27" height="34.87" fill="#2ca02c"/><text x="368.36" y="121.13" font-size="9" text-anchor="middle" fill="#000">$0.0104</text><rect x="380.00" y="117.69" width="23.27" height="42.31" fill="#d62728"/><text x="391.64" y="113.69" font-size="9" text-anchor="middle" fill="#000">$0.0127</text><text x="380.00" y="172" font-size="10" fill="#000" text-anchor="end" transform="rotate(-35 380.00 172)">task2-implement-cdp-s…</text><rect x="414.91" y="46.96" width="23.27" height="113.04" fill="#2ca02c"/><text x="426.55" y="42.96" font-size="9" text-anchor="middle" fill="#000">$0.0339</text><rect x="438.18" y="160.00" width="23.27" height="0.00" fill="#d62728"/><text x="449.82" y="156.00" font-size="9" text-anchor="middle" fill="#000">$0.0000</text><text x="438.18" y="172" font-size="10" fill="#000" text-anchor="end" transform="rotate(-35 438.18 172)">task2-implement-loop-…</text><rect x="473.09" y="160.00" width="23.27" height="0.00" fill="#2ca02c"/><text x="484.73" y="156.00" font-size="9" text-anchor="middle" fill="#000">$0.0000</text><rect x="496.36" y="121.07" width="23.27" height="38.93" fill="#d62728"/><text x="508.00" y="117.07" font-size="9" text-anchor="middle" fill="#000">$0.0117</text><text x="496.36" y="172" font-size="10" fill="#000" text-anchor="end" transform="rotate(-35 496.36 172)">task2-implement-plan-…</text><rect x="531.27" y="148.83" width="23.27" height="11.17" fill="#2ca02c"/><text x="542.91" y="144.83" font-size="9" text-anchor="middle" fill="#000">$0.0033</text><rect x="554.55" y="132.79" width="23.27" height="27.21" fill="#d62728"/><text x="566.18" y="128.79" font-size="9" text-anchor="middle" fill="#000">$0.0082</text><text x="554.55" y="172" font-size="10" fill="#000" text-anchor="end" transform="rotate(-35 554.55 172)">task2-implement-trace…</text><rect x="589.45" y="160.00" width="23.27" height="0.00" fill="#2ca02c"/><text x="601.09" y="156.00" font-size="9" text-anchor="middle" fill="#000">$0.0000</text><rect x="612.73" y="71.94" width="23.27" height="88.06" fill="#d62728"/><text x="624.36" y="67.94" font-size="9" text-anchor="middle" fill="#000">$0.0264</text><text x="612.73" y="172" font-size="10" fill="#000" text-anchor="end" transform="rotate(-35 612.73 172)">task2-implement-self-…</text><rect x="647.64" y="120.61" width="23.27" height="39.39" fill="#2ca02c"/><text x="659.27" y="116.61" font-size="9" text-anchor="middle" fill="#000">$0.0118</text><rect x="670.91" y="121.46" width="23.27" height="38.54" fill="#d62728"/><text x="682.55" y="117.46" font-size="9" text-anchor="middle" fill="#000">$0.0115</text><text x="670.91" y="172" font-size="10" fill="#000" text-anchor="end" transform="rotate(-35 670.91 172)">task2-implement-loop-…</text><rect x="560" y="18" width="10" height="10" fill="#2ca02c"/><text x="574" y="26" font-size="10" fill="#000">passed</text><rect x="630" y="18" width="10" height="10" fill="#d62728"/><text x="644" y="26" font-size="10" fill="#000">failed</text></svg>