<svg xmlns="http://www.w3.org/2000/svg" viewBox="0 0 720 220" width="720" height="220" font-family="sans-serif"><rect width="100%" height="100%" fill="#fff"/><text x="60" y="18" font-size="13" font-weight="600">Cost (USD) by status</text><line x1="60" y1="30" x2="60" y2="160" stroke="#999"/><line x1="60" y1="160" x2="700" y2="160" stroke="#999"/><text x="54" y="164.0" font-size="10" text-anchor="end" fill="#000">$0.0000</text><text x="54" y="99.0" font-size="10" text-anchor="end" fill="#000">$0.0221</text><line x1="60" y1="95.0" x2="700" y2="95.0" stroke="#eee" stroke-dasharray="2,2"/><text x="54" y="34.0" font-size="10" text-anchor="end" fill="#000">$0.0443</text><line x1="60" y1="30.0" x2="700" y2="30.0" stroke="#eee" stroke-dasharray="2,2"/><text x="14" y="95.0" font-size="11" fill="#000" transform="rotate(-90 14 95.0)" text-anchor="middle">USD</text><rect x="63.56" y="160.00" width="14.22" height="0.00" fill="#2ca02c"/><text x="70.67" y="156.00" font-size="9" text-anchor="middle" fill="#000">$0.0000</text><rect x="77.78" y="126.68" width="14.22" height="33.32" fill="#d62728"/><text x="84.89" y="122.68" font-size="9" text-anchor="middle" fill="#000">$0.0113</text><text x="77.78" y="172" font-size="10" fill="#000" text-anchor="end" transform="rotate(-35 77.78 172)">master</text><rect x="99.11" y="150.59" width="14.22" height="9.41" fill="#2ca02c"/><text x="106.22" y="146.59" font-size="9" text-anchor="middle" fill="#000">$0.0032</text><rect x="113.33" y="126.68" width="14.22" height="33.32" fill="#d62728"/><text x="120.44" y="122.68" font-size="9" text-anchor="middle" fill="#000">$0.0113</text><text x="113.33" y="172" font-size="10" fill="#000" text-anchor="end" transform="rotate(-35 113.33 172)">feat-task2-benchmark-…</text><rect x="134.67" y="160.00" width="14.22" height="0.00" fill="#2ca02c"/><text x="141.78" y="156.00" font-size="9" text-anchor="middle" fill="#000">$0.0000</text><rect x="148.89" y="130.46" width="14.22" height="29.54" fill="#d62728"/><text x="156.00" y="126.46" font-size="9" text-anchor="middle" fill="#000">$0.0101</text><text x="148.89" y="172" font-size="10" fill="#000" text-anchor="end" transform="rotate(-35 148.89 172)">task2-implement-obser…</text><rect x="170.22" y="160.00" width="14.22" height="0.00" fill="#2ca02c"/><text x="177.33" y="156.00" font-size="9" text-anchor="middle" fill="#000">$0.0000</text><rect x="184.44" y="130.46" width="14.22" height="29.54" fill="#d62728"/><text x="191.56" y="126.46" font-size="9" text-anchor="middle" fill="#000">$0.0101</text><text x="184.44" y="172" font-size="10" fill="#000" text-anchor="end" transform="rotate(-35 184.44 172)">task2-scoreboard-time…</text><rect x="205.78" y="149.17" width="14.22" height="10.83" fill="#2ca02c"/><text x="212.89" y="145.17" font-size="9" text-anchor="middle" fill="#000">$0.0037</text><rect x="220.00" y="132.15" width="14.22" height="27.85" fill="#d62728"/><text x="227.11" y="128.15" font-size="9" text-anchor="middle" fill="#000">$0.0095</text><text x="220.00" y="172" font-size="10" fill="#000" text-anchor="end" transform="rotate(-35 220.00 172)">task2-implement-plan-…</text><rect x="241.33" y="129.31" width="14.22" height="30.69" fill="#2ca02c"/><text x="248.44" y="125.31" font-size="9" text-anchor="middle" fill="#000">$0.0104</text><rect x="255.56" y="122.76" width="14.22" height="37.24" fill="#d62728"/><text x="262.67" y="118.76" font-size="9" text-anchor="middle" fill="#000">$0.0127</text><text x="255.56" y="172" font-size="10" fill="#000" text-anchor="end" transform="rotate(-35 255.56 172)">task2-implement-cdp-s…</text><rect x="276.89" y="60.49" width="14.22" height="99.51" fill="#2ca02c"/><text x="284.00" y="56.49" font-size="9" text-anchor="middle" fill="#000">$0.0339</text><rect x="291.11" y="160.00" width="14.22" height="0.00" fill="#d62728"/><text x="298.22" y="156.00" font-size="9" text-anchor="middle" fill="#000">$0.0000</text><text x="291.11" y="172" font-size="10" fill="#000" text-anchor="end" transform="rotate(-35 291.11 172)">task2-implement-loop-…</text><rect x="312.44" y="160.00" width="14.22" height="0.00" fill="#2ca02c"/><text x="319.56" y="156.00" font-size="9" text-anchor="middle" fill="#000">$0.0000</text><rect x="326.67" y="125.73" width="14.22" height="34.27" fill="#d62728"/><text x="333.78" y="121.73" font-size="9" text-anchor="middle" fill="#000">$0.0117</text><text x="326.67" y="172" font-size="10" fill="#000" text-anchor="end" transform="rotate(-35 326.67 172)">task2-implement-plan-…</text><rect x="348.00" y="150.16" width="14.22" height="9.84" fill="#2ca02c"/><text x="355.11" y="146.16" font-size="9" text-anchor="middle" fill="#000">$0.0033</text><rect x="362.22" y="136.05" width="14.22" height="23.95" fill="#d62728"/><text x="369.33" y="132.05" font-size="9" text-anchor="middle" fill="#000">$0.0082</text><text x="362.22" y="172" font-size="10" fill="#000" text-anchor="end" transform="rotate(-35 362.22 172)">task2-implement-trace…</text><rect x="383.56" y="160.00" width="14.22" height="0.00" fill="#2ca02c"/><text x="390.67" y="156.00" font-size="9" text-anchor="middle" fill="#000">$0.0000</text><rect x="397.78" y="82.48" width="14.22" height="77.52" fill="#d62728"/><text x="404.89" y="78.48" font-size="9" text-anchor="middle" fill="#000">$0.0264</text><text x="397.78" y="172" font-size="10" fill="#000" text-anchor="end" transform="rotate(-35 397.78 172)">task2-implement-self-…</text><rect x="419.11" y="125.32" width="14.22" height="34.68" fill="#2ca02c"/><text x="426.22" y="121.32" font-size="9" text-anchor="middle" fill="#000">$0.0118</text><rect x="433.33" y="126.08" width="14.22" height="33.92" fill="#d62728"/><text x="440.44" y="122.08" font-size="9" text-anchor="middle" fill="#000">$0.0115</text><text x="433.33" y="172" font-size="10" fill="#000" text-anchor="end" transform="rotate(-35 433.33 172)">task2-implement-loop-…</text><rect x="454.67" y="130.97" width="14.22" height="29.03" fill="#2ca02c"/><text x="461.78" y="126.97" font-size="9" text-anchor="middle" fill="#000">$0.0099</text><rect x="468.89" y="73.14" width="14.22" height="86.86" fill="#d62728"/><text x="476.00" y="69.14" font-size="9" text-anchor="middle" fill="#000">$0.0296</text><text x="468.89" y="172" font-size="10" fill="#000" text-anchor="end" transform="rotate(-35 468.89 172)">task2-implement-trace…</text><rect x="490.22" y="73.56" width="14.22" height="86.44" fill="#2ca02c"/><text x="497.33" y="69.56" font-size="9" text-anchor="middle" fill="#000">$0.0294</text><rect x="504.44" y="46.96" width="14.22" height="113.04" fill="#d62728"/><text x="511.56" y="42.96" font-size="9" text-anchor="middle" fill="#000">$0.0385</text><text x="504.44" y="172" font-size="10" fill="#000" text-anchor="end" transform="rotate(-35 504.44 172)">task2-implement-loop-…</text><rect x="525.78" y="143.73" width="14.22" height="16.27" fill="#2ca02c"/><text x="532.89" y="139.73" font-size="9" text-anchor="middle" fill="#000">$0.0055</text><rect x="540.00" y="97.28" width="14.22" height="62.72" fill="#d62728"/><text x="547.11" y="93.28" font-size="9" text-anchor="middle" fill="#000">$0.0214</text><text x="540.00" y="172" font-size="10" fill="#000" text-anchor="end" transform="rotate(-35 540.00 172)">task2-implement-failu…</text><rect x="561.33" y="145.09" width="14.22" height="14.91" fill="#2ca02c"/><text x="568.44" y="141.09" font-size="9" text-anchor="middle" fill="#000">$0.0051</text><rect x="575.56" y="79.62" width="14.22" height="80.38" fill="#d62728"/><text x="582.67" y="75.62" font-size="9" text-anchor="middle" fill="#000">$0.0274</text><text x="575.56" y="172" font-size="10" fill="#000" text-anchor="end" transform="rotate(-35 575.56 172)">task2-fix-mechanism-f…</text><rect x="596.89" y="110.11" width="14.22" height="49.89" fill="#2ca02c"/><text x="604.00" y="106.11" font-size="9" text-anchor="middle" fill="#000">$0.0170</text><rect x="611.11" y="53.37" width="14.22" height="106.63" fill="#d62728"/><text x="618.22" y="49.37" font-size="9" text-anchor="middle" fill="#000">$0.0363</text><text x="611.11" y="172" font-size="10" fill="#000" text-anchor="end" transform="rotate(-35 611.11 172)">task2-fix-llm-model-d…</text><rect x="632.44" y="59.84" width="14.22" height="100.16" fill="#2ca02c"/><text x="639.56" y="55.84" font-size="9" text-anchor="middle" fill="#000">$0.0341</text><rect x="646.67" y="100.54" width="14.22" height="59.46" fill="#d62728"/><text x="653.78" y="96.54" font-size="9" text-anchor="middle" fill="#000">$0.0202</text><text x="646.67" y="172" font-size="10" fill="#000" text-anchor="end" transform="rotate(-35 646.67 172)">task2-fix-run-agent-t…</text><rect x="668.00" y="82.41" width="14.22" height="77.59" fill="#2ca02c"/><text x="675.11" y="78.41" font-size="9" text-anchor="middle" fill="#000">$0.0264</text><rect x="682.22" y="85.04" width="14.22" height="74.96" fill="#d62728"/><text x="689.33" y="81.04" font-size="9" text-anchor="middle" fill="#000">$0.0255</text><text x="682.22" y="172" font-size="10" fill="#000" text-anchor="end" transform="rotate(-35 682.22 172)">task2-fix-escalation-…</text><rect x="560" y="18" width="10" height="10" fill="#2ca02c"/><text x="574" y="26" font-size="10" fill="#000">passed</text><rect x="630" y="18" width="10" height="10" fill="#d62728"/><text x="644" y="26" font-size="10" fill="#000">failed</text></svg>