<svg xmlns="http://www.w3.org/2000/svg" viewBox="0 0 720 220" width="720" height="220" font-family="sans-serif"><rect width="100%" height="100%" fill="#fff"/><text x="60" y="18" font-size="13" font-weight="600">Latency by status (p50 solid, p95 dashed)</text><line x1="60" y1="30" x2="60" y2="160" stroke="#999"/><line x1="60" y1="160" x2="700" y2="160" stroke="#999"/><text x="54" y="164.0" font-size="10" text-anchor="end" fill="#000">0</text><text x="54" y="99.0" font-size="10" text-anchor="end" fill="#000">43911</text><line x1="60" y1="95.0" x2="700" y2="95.0" stroke="#eee" stroke-dasharray="2,2"/><text x="54" y="34.0" font-size="10" text-anchor="end" fill="#000">87822</text><line x1="60" y1="30.0" x2="700" y2="30.0" stroke="#eee" stroke-dasharray="2,2"/><text x="14" y="95.0" font-size="11" fill="#000" transform="rotate(-90 14 95.0)" text-anchor="middle">ms</text><polyline points="60.00,160.00 89.09,130.43 118.18,160.00 147.27,160.00 176.36,111.83 205.45,122.83 234.55,88.67 263.64,160.00 292.73,125.23 321.82,160.00 350.91,103.30 380.00,123.28 409.09,80.20 438.18,75.93 467.27,114.53 496.36,100.65 525.45,93.44 554.55,111.97 583.64,160.00 612.73,115.81 641.82,160.00 670.91,160.00 700.00,160.00" fill="none" stroke="#2ca02c" stroke-width="2"/><circle cx="60.00" cy="160.00" r="2.5" fill="#2ca02c"/><circle cx="89.09" cy="130.43" r="2.5" fill="#2ca02c"/><circle cx="118.18" cy="160.00" r="2.5" fill="#2ca02c"/><circle cx="147.27" cy="160.00" r="2.5" fill="#2ca02c"/><circle cx="176.36" cy="111.83" r="2.5" fill="#2ca02c"/><circle cx="205.45" cy="122.83" r="2.5" fill="#2ca02c"/><circle cx="234.55" cy="88.67" r="2.5" fill="#2ca02c"/><circle cx="263.64" cy="160.00" r="2.5" fill="#2ca02c"/><circle cx="292.73" cy="125.23" r="2.5" fill="#2ca02c"/><circle cx="321.82" cy="160.00" r="2.5" fill="#2ca02c"/><circle cx="350.91" cy="103.30" r="2.5" fill="#2ca02c"/><circle cx="380.00" cy="123.28" r="2.5" fill="#2ca02c"/><circle cx="409.09" cy="80.20" r="2.5" fill="#2ca02c"/><circle cx="438.18" cy="75.93" r="2.5" fill="#2ca02c"/><circle cx="467.27" cy="114.53" r="2.5" fill="#2ca02c"/><circle cx="496.36" cy="100.65" r="2.5" fill="#2ca02c"/><circle cx="525.45" cy="93.44" r="2.5" fill="#2ca02c"/><circle cx="554.55" cy="111.97" r="2.5" fill="#2ca02c"/><circle cx="583.64" cy="160.00" r="2.5" fill="#2ca02c"/><circle cx="612.73" cy="115.81" r="2.5" fill="#2ca02c"/><circle cx="641.82" cy="160.00" r="2.5" fill="#2ca02c"/><circle cx="670.91" cy="160.00" r="2.5" fill="#2ca02c"/><circle cx="700.00" cy="160.00" r="2.5" fill="#2ca02c"/><polyline points="60.00,160.00 89.09,130.43 118.18,160.00 147.27,160.00 176.36,111.83 205.45,101.53 234.55,48.31 263.64,160.00 292.73,125.23 321.82,160.00 350.91,103.30 380.00,116.91 409.09,80.20 438.18,75.93 467.27,114.53 496.36,94.25 525.45,53.58 554.55,46.96 583.64,160.00 612.73,115.81 641.82,160.00 670.91,160.00 700.00,160.00" fill="none" stroke="#2ca02c" stroke-width="2" stroke-dasharray="4,3"/><circle cx="60.00" cy="160.00" r="2.5" fill="#2ca02c"/><circle cx="89.09" cy="130.43" r="2.5" fill="#2ca02c"/><circle cx="118.18" cy="160.00" r="2.5" fill="#2ca02c"/><circle cx="147.27" cy="160.00" r="2.5" fill="#2ca02c"/><circle cx="176.36" cy="111.83" r="2.5" fill="#2ca02c"/><circle cx="205.45" cy="101.53" r="2.5" fill="#2ca02c"/><circle cx="234.55" cy="48.31" r="2.5" fill="#2ca02c"/><circle cx="263.64" cy="160.00" r="2.5" fill="#2ca02c"/><circle cx="292.73" cy="125.23" r="2.5" fill="#2ca02c"/><circle cx="321.82" cy="160.00" r="2.5" fill="#2ca02c"/><circle cx="350.91" cy="103.30" r="2.5" fill="#2ca02c"/><circle cx="380.00" cy="116.91" r="2.5" fill="#2ca02c"/><circle cx="409.09" cy="80.20" r="2.5" fill="#2ca02c"/><circle cx="438.18" cy="75.93" r="2.5" fill="#2ca02c"/><circle cx="467.27" cy="114.53" r="2.5" fill="#2ca02c"/><circle cx="496.36" cy="94.25" r="2.5" fill="#2ca02c"/><circle cx="525.45" cy="53.58" r="2.5" fill="#2ca02c"/><circle cx="554.55" cy="46.96" r="2.5" fill="#2ca02c"/><circle cx="583.64" cy="160.00" r="2.5" fill="#2ca02c"/><circle cx="612.73" cy="115.81" r="2.5" fill="#2ca02c"/><circle cx="641.82" cy="160.00" r="2.5" fill="#2ca02c"/><circle cx="670.91" cy="160.00" r="2.5" fill="#2ca02c"/><circle cx="700.00" cy="160.00" r="2.5" fill="#2ca02c"/><polyline points="60.00,160.00 89.09,119.00 118.18,139.65 147.27,141.15 176.36,116.75 205.45,108.46 234.55,160.00 263.64,123.27 292.73,129.04 321.82,121.05 350.91,126.09 380.00,115.62 409.09,116.94 438.18,126.85 467.27,118.78 496.36,87.63 525.45,160.00 554.55,127.34 583.64,127.03 612.73,119.78 641.82,123.93 670.91,123.79 700.00,124.11" fill="none" stroke="#d62728" stroke-width="2"/><circle cx="60.00" cy="160.00" r="2.5" fill="#d62728"/><circle cx="89.09" cy="119.00" r="2.5" fill="#d62728"/><circle cx="118.18" cy="139.65" r="2.5" fill="#d62728"/><circle cx="147.27" cy="141.15" r="2.5" fill="#d62728"/><circle cx="176.36" cy="116.75" r="2.5" fill="#d62728"/><circle cx="205.45" cy="108.46" r="2.5" fill="#d62728"/><circle cx="234.55" cy="160.00" r="2.5" fill="#d62728"/><circle cx="263.64" cy="123.27" r="2.5" fill="#d62728"/><circle cx="292.73" cy="129.04" r="2.5" fill="#d62728"/><circle cx="321.82" cy="121.05" r="2.5" fill="#d62728"/><circle cx="350.91" cy="126.09" r="2.5" fill="#d62728"/><circle cx="380.00" cy="115.62" r="2.5" fill="#d62728"/><circle cx="409.09" cy="116.94" r="2.5" fill="#d62728"/><circle cx="438.18" cy="126.85" r="2.5" fill="#d62728"/><circle cx="467.27" cy="118.78" r="2.5" fill="#d62728"/><circle cx="496.36" cy="87.63" r="2.5" fill="#d62728"/><circle cx="525.45" cy="160.00" r="2.5" fill="#d62728"/><circle cx="554.55" cy="127.34" r="2.5" fill="#d62728"/><circle cx="583.64" cy="127.03" r="2.5" fill="#d62728"/><circle cx="612.73" cy="119.78" r="2.5" fill="#d62728"/><circle cx="641.82" cy="123.93" r="2.5" fill="#d62728"/><circle cx="670.91" cy="123.79" r="2.5" fill="#d62728"/><circle cx="700.00" cy="124.11" r="2.5" fill="#d62728"/><polyline points="60.00,111.92 89.09,111.57 118.18,132.44 147.27,135.06 176.36,111.52 205.45,90.50 234.55,160.00 263.64,114.30 292.73,118.32 321.82,106.83 350.91,123.32 380.00,61.25 409.09,103.52 438.18,116.67 467.27,91.49 496.36,63.74 525.45,83.78 554.55,73.59 583.64,80.48 612.73,108.50 641.82,112.41 670.91,112.74 700.00,110.78" fill="none" stroke="#d62728" stroke-width="2" stroke-dasharray="4,3"/><circle cx="60.00" cy="111.92" r="2.5" fill="#d62728"/><circle cx="89.09" cy="111.57" r="2.5" fill="#d62728"/><circle cx="118.18" cy="132.44" r="2.5" fill="#d62728"/><circle cx="147.27" cy="135.06" r="2.5" fill="#d62728"/><circle cx="176.36" cy="111.52" r="2.5" fill="#d62728"/><circle cx="205.45" cy="90.50" r="2.5" fill="#d62728"/><circle cx="234.55" cy="160.00" r="2.5" fill="#d62728"/><circle cx="263.64" cy="114.30" r="2.5" fill="#d62728"/><circle cx="292.73" cy="118.32" r="2.5" fill="#d62728"/><circle cx="321.82" cy="106.83" r="2.5" fill="#d62728"/><circle cx="350.91" cy="123.32" r="2.5" fill="#d62728"/><circle cx="380.00" cy="61.25" r="2.5" fill="#d62728"/><circle cx="409.09" cy="103.52" r="2.5" fill="#d62728"/><circle cx="438.18" cy="116.67" r="2.5" fill="#d62728"/><circle cx="467.27" cy="91.49" r="2.5" fill="#d62728"/><circle cx="496.36" cy="63.74" r="2.5" fill="#d62728"/><circle cx="525.45" cy="83.78" r="2.5" fill="#d62728"/><circle cx="554.55" cy="73.59" r="2.5" fill="#d62728"/><circle cx="583.64" cy="80.48" r="2.5" fill="#d62728"/><circle cx="612.73" cy="108.50" r="2.5" fill="#d62728"/><circle cx="641.82" cy="112.41" r="2.5" fill="#d62728"/><circle cx="670.91" cy="112.74" r="2.5" fill="#d62728"/><circle cx="700.00" cy="110.78" r="2.5" fill="#d62728"/><line x1="400" y1="23" x2="416" y2="23" stroke="#2ca02c" stroke-width="2"/><text x="420" y="26" font-size="10" fill="#000">p50 passed</text><line x1="475" y1="23" x2="491" y2="23" stroke="#2ca02c" stroke-width="2" stroke-dasharray="4,3"/><text x="495" y="26" font-size="10" fill="#000">p95 passed</text><line x1="550" y1="23" x2="566" y2="23" stroke="#d62728" stroke-width="2"/><text x="570" y="26" font-size="10" fill="#000">p50 failed</text><line x1="625" y1="23" x2="641" y2="23" stroke="#d62728" stroke-width="2" stroke-dasharray="4,3"/><text x="645" y="26" font-size="10" fill="#000">p95 failed</text><text x="60.00" y="172" font-size="10" fill="#000" text-anchor="end" transform="rotate(-35 60.00 172)">master</text><text x="89.09" y="172" font-size="10" fill="#000" text-anchor="end" transform="rotate(-35 89.09 172)">feat-task2-benchmark-…</text><text x="118.18" y="172" font-size="10" fill="#000" text-anchor="end" transform="rotate(-35 118.18 172)">task2-implement-obser…</text><text x="147.27" y="172" font-size="10" fill="#000" text-anchor="end" transform="rotate(-35 147.27 172)">task2-scoreboard-time…</text><text x="176.36" y="172" font-size="10" fill="#000" text-anchor="end" transform="rotate(-35 176.36 172)">task2-implement-plan-…</text><text x="205.45" y="172" font-size="10" fill="#000" text-anchor="end" transform="rotate(-35 205.45 172)">task2-implement-cdp-s…</text><text x="234.55" y="172" font-size="10" fill="#000" text-anchor="end" transform="rotate(-35 234.55 172)">task2-implement-loop-…</text><text x="263.64" y="172" font-size="10" fill="#000" text-anchor="end" transform="rotate(-35 263.64 172)">task2-implement-plan-…</text><text x="292.73" y="172" font-size="10" fill="#000" text-anchor="end" transform="rotate(-35 292.73 172)">task2-implement-trace…</text><text x="321.82" y="172" font-size="10" fill="#000" text-anchor="end" transform="rotate(-35 321.82 172)">task2-implement-self-…</text><text x="350.91" y="172" font-size="10" fill="#000" text-anchor="end" transform="rotate(-35 350.91 172)">task2-implement-loop-…</text><text x="380.00" y="172" font-size="10" fill="#000" text-anchor="end" transform="rotate(-35 380.00 172)">task2-implement-trace…</text><text x="409.09" y="172" font-size="10" fill="#000" text-anchor="end" transform="rotate(-35 409.09 172)">task2-implement-loop-…</text><text x="438.18" y="172" font-size="10" fill="#000" text-anchor="end" transform="rotate(-35 438.18 172)">task2-implement-failu…</text><text x="467.27" y="172" font-size="10" fill="#000" text-anchor="end" transform="rotate(-35 467.27 172)">task2-fix-mechanism-f…</text><text x="496.36" y="172" font-size="10" fill="#000" text-anchor="end" transform="rotate(-35 496.36 172)">task2-fix-llm-model-d…</text><text x="525.45" y="172" font-size="10" fill="#000" text-anchor="end" transform="rotate(-35 525.45 172)">task2-fix-run-agent-t…</text><text x="554.55" y="172" font-size="10" fill="#000" text-anchor="end" transform="rotate(-35 554.55 172)">task2-fix-escalation-…</text><text x="583.64" y="172" font-size="10" fill="#000" text-anchor="end" transform="rotate(-35 583.64 172)">task2-implement-score…</text><text x="612.73" y="172" font-size="10" fill="#000" text-anchor="end" transform="rotate(-35 612.73 172)">task2-implement-skip-…</text><text x="641.82" y="172" font-size="10" fill="#000" text-anchor="end" transform="rotate(-35 641.82 172)">task2-implement-bench…</text><text x="670.91" y="172" font-size="10" fill="#000" text-anchor="end" transform="rotate(-35 670.91 172)">task2-implement-score…</text><text x="700.00" y="172" font-size="10" fill="#000" text-anchor="end" transform="rotate(-35 700.00 172)">task2-fix-benchmark-r…</text></svg>