<svg xmlns="http://www.w3.org/2000/svg" viewBox="0 0 720 220" width="720" height="220" font-family="sans-serif"><rect width="100%" height="100%" fill="#fff"/><text x="60" y="18" font-size="13" font-weight="600">Latency by status (p50 solid, p95 dashed)</text><line x1="60" y1="30" x2="60" y2="160" stroke="#999"/><line x1="60" y1="160" x2="700" y2="160" stroke="#999"/><text x="54" y="164.0" font-size="10" text-anchor="end" fill="#000">0</text><text x="54" y="99.0" font-size="10" text-anchor="end" fill="#000">43386</text><line x1="60" y1="95.0" x2="700" y2="95.0" stroke="#eee" stroke-dasharray="2,2"/><text x="54" y="34.0" font-size="10" text-anchor="end" fill="#000">86773</text><line x1="60" y1="30.0" x2="700" y2="30.0" stroke="#eee" stroke-dasharray="2,2"/><text x="14" y="95.0" font-size="11" fill="#000" transform="rotate(-90 14 95.0)" text-anchor="middle">ms</text><polyline points="60.00,160.00 109.23,130.07 158.46,160.00 207.69,160.00 256.92,111.25 306.15,122.38 355.38,87.81 404.62,160.00 453.85,124.81 503.08,160.00 552.31,102.62 601.54,122.84 650.77,79.24 700.00,74.91" fill="none" stroke="#2ca02c" stroke-width="2"/><circle cx="60.00" cy="160.00" r="2.5" fill="#2ca02c"/><circle cx="109.23" cy="130.07" r="2.5" fill="#2ca02c"/><circle cx="158.46" cy="160.00" r="2.5" fill="#2ca02c"/><circle cx="207.69" cy="160.00" r="2.5" fill="#2ca02c"/><circle cx="256.92" cy="111.25" r="2.5" fill="#2ca02c"/><circle cx="306.15" cy="122.38" r="2.5" fill="#2ca02c"/><circle cx="355.38" cy="87.81" r="2.5" fill="#2ca02c"/><circle cx="404.62" cy="160.00" r="2.5" fill="#2ca02c"/><circle cx="453.85" cy="124.81" r="2.5" fill="#2ca02c"/><circle cx="503.08" cy="160.00" r="2.5" fill="#2ca02c"/><circle cx="552.31" cy="102.62" r="2.5" fill="#2ca02c"/><circle cx="601.54" cy="122.84" r="2.5" fill="#2ca02c"/><circle cx="650.77" cy="79.24" r="2.5" fill="#2ca02c"/><circle cx="700.00" cy="74.91" r="2.5" fill="#2ca02c"/><polyline points="60.00,160.00 109.23,130.07 158.46,160.00 207.69,160.00 256.92,111.25 306.15,100.82 355.38,46.96 404.62,160.00 453.85,124.81 503.08,160.00 552.31,102.62 601.54,116.39 650.77,79.24 700.00,74.91" fill="none" stroke="#2ca02c" stroke-width="2" stroke-dasharray="4,3"/><circle cx="60.00" cy="160.00" r="2.5" fill="#2ca02c"/><circle cx="109.23" cy="130.07" r="2.5" fill="#2ca02c"/><circle cx="158.46" cy="160.00" r="2.5" fill="#2ca02c"/><circle cx="207.69" cy="160.00" r="2.5" fill="#2ca02c"/><circle cx="256.92" cy="111.25" r="2.5" fill="#2ca02c"/><circle cx="306.15" cy="100.82" r="2.5" fill="#2ca02c"/><circle cx="355.38" cy="46.96" r="2.5" fill="#2ca02c"/><circle cx="404.62" cy="160.00" r="2.5" fill="#2ca02c"/><circle cx="453.85" cy="124.81" r="2.5" fill="#2ca02c"/><circle cx="503.08" cy="160.00" r="2.5" fill="#2ca02c"/><circle cx="552.31" cy="102.62" r="2.5" fill="#2ca02c"/><circle cx="601.54" cy="116.39" r="2.5" fill="#2ca02c"/><circle cx="650.77" cy="79.24" r="2.5" fill="#2ca02c"/><circle cx="700.00" cy="74.91" r="2.5" fill="#2ca02c"/><polyline points="60.00,160.00 109.23,118.50 158.46,139.40 207.69,140.92 256.92,116.23 306.15,107.83 355.38,160.00 404.62,122.83 453.85,128.66 503.08,120.58 552.31,125.68 601.54,115.08 650.77,116.42 700.00,126.45" fill="none" stroke="#d62728" stroke-width="2"/><circle cx="60.00" cy="160.00" r="2.5" fill="#d62728"/><circle cx="109.23" cy="118.50" r="2.5" fill="#d62728"/><circle cx="158.46" cy="139.40" r="2.5" fill="#d62728"/><circle cx="207.69" cy="140.92" r="2.5" fill="#d62728"/><circle cx="256.92" cy="116.23" r="2.5" fill="#d62728"/><circle cx="306.15" cy="107.83" r="2.5" fill="#d62728"/><circle cx="355.38" cy="160.00" r="2.5" fill="#d62728"/><circle cx="404.62" cy="122.83" r="2.5" fill="#d62728"/><circle cx="453.85" cy="128.66" r="2.5" fill="#d62728"/><circle cx="503.08" cy="120.58" r="2.5" fill="#d62728"/><circle cx="552.31" cy="125.68" r="2.5" fill="#d62728"/><circle cx="601.54" cy="115.08" r="2.5" fill="#d62728"/><circle cx="650.77" cy="116.42" r="2.5" fill="#d62728"/><circle cx="700.00" cy="126.45" r="2.5" fill="#d62728"/><polyline points="60.00,111.34 109.23,110.99 158.46,132.11 207.69,134.76 256.92,110.94 306.15,89.66 355.38,160.00 404.62,113.75 453.85,117.82 503.08,106.19 552.31,122.88 601.54,60.06 650.77,102.84 700.00,116.14" fill="none" stroke="#d62728" stroke-width="2" stroke-dasharray="4,3"/><circle cx="60.00" cy="111.34" r="2.5" fill="#d62728"/><circle cx="109.23" cy="110.99" r="2.5" fill="#d62728"/><circle cx="158.46" cy="132.11" r="2.5" fill="#d62728"/><circle cx="207.69" cy="134.76" r="2.5" fill="#d62728"/><circle cx="256.92" cy="110.94" r="2.5" fill="#d62728"/><circle cx="306.15" cy="89.66" r="2.5" fill="#d62728"/><circle cx="355.38" cy="160.00" r="2.5" fill="#d62728"/><circle cx="404.62" cy="113.75" r="2.5" fill="#d62728"/><circle cx="453.85" cy="117.82" r="2.5" fill="#d62728"/><circle cx="503.08" cy="106.19" r="2.5" fill="#d62728"/><circle cx="552.31" cy="122.88" r="2.5" fill="#d62728"/><circle cx="601.54" cy="60.06" r="2.5" fill="#d62728"/><circle cx="650.77" cy="102.84" r="2.5" fill="#d62728"/><circle cx="700.00" cy="116.14" r="2.5" fill="#d62728"/><line x1="400" y1="23" x2="416" y2="23" stroke="#2ca02c" stroke-width="2"/><text x="420" y="26" font-size="10" fill="#000">p50 passed</text><line x1="475" y1="23" x2="491" y2="23" stroke="#2ca02c" stroke-width="2" stroke-dasharray="4,3"/><text x="495" y="26" font-size="10" fill="#000">p95 passed</text><line x1="550" y1="23" x2="566" y2="23" stroke="#d62728" stroke-width="2"/><text x="570" y="26" font-size="10" fill="#000">p50 failed</text><line x1="625" y1="23" x2="641" y2="23" stroke="#d62728" stroke-width="2" stroke-dasharray="4,3"/><text x="645" y="26" font-size="10" fill="#000">p95 failed</text><text x="60.00" y="172" font-size="10" fill="#000" text-anchor="end" transform="rotate(-35 60.00 172)">master</text><text x="109.23" y="172" font-size="10" fill="#000" text-anchor="end" transform="rotate(-35 109.23 172)">feat-task2-benchmark-…</text><text x="158.46" y="172" font-size="10" fill="#000" text-anchor="end" transform="rotate(-35 158.46 172)">task2-implement-obser…</text><text x="207.69" y="172" font-size="10" fill="#000" text-anchor="end" transform="rotate(-35 207.69 172)">task2-scoreboard-time…</text><text x="256.92" y="172" font-size="10" fill="#000" text-anchor="end" transform="rotate(-35 256.92 172)">task2-implement-plan-…</text><text x="306.15" y="172" font-size="10" fill="#000" text-anchor="end" transform="rotate(-35 306.15 172)">task2-implement-cdp-s…</text><text x="355.38" y="172" font-size="10" fill="#000" text-anchor="end" transform="rotate(-35 355.38 172)">task2-implement-loop-…</text><text x="404.62" y="172" font-size="10" fill="#000" text-anchor="end" transform="rotate(-35 404.62 172)">task2-implement-plan-…</text><text x="453.85" y="172" font-size="10" fill="#000" text-anchor="end" transform="rotate(-35 453.85 172)">task2-implement-trace…</text><text x="503.08" y="172" font-size="10" fill="#000" text-anchor="end" transform="rotate(-35 503.08 172)">task2-implement-self-…</text><text x="552.31" y="172" font-size="10" fill="#000" text-anchor="end" transform="rotate(-35 552.31 172)">task2-implement-loop-…</text><text x="601.54" y="172" font-size="10" fill="#000" text-anchor="end" transform="rotate(-35 601.54 172)">task2-implement-trace…</text><text x="650.77" y="172" font-size="10" fill="#000" text-anchor="end" transform="rotate(-35 650.77 172)">task2-implement-loop-…</text><text x="700.00" y="172" font-size="10" fill="#000" text-anchor="end" transform="rotate(-35 700.00 172)">task2-implement-failu…</text></svg>