<svg xmlns="http://www.w3.org/2000/svg" viewBox="0 0 720 220" width="720" height="220" font-family="sans-serif"><rect width="100%" height="100%" fill="#fff"/><text x="60" y="18" font-size="13" font-weight="600">Latency by status (p50 solid, p95 dashed)</text><line x1="60" y1="30" x2="60" y2="160" stroke="#999"/><line x1="60" y1="160" x2="700" y2="160" stroke="#999"/><text x="54" y="164.0" font-size="10" text-anchor="end" fill="#000">0</text><text x="54" y="99.0" font-size="10" text-anchor="end" fill="#000">43386</text><line x1="60" y1="95.0" x2="700" y2="95.0" stroke="#eee" stroke-dasharray="2,2"/><text x="54" y="34.0" font-size="10" text-anchor="end" fill="#000">86773</text><line x1="60" y1="30.0" x2="700" y2="30.0" stroke="#eee" stroke-dasharray="2,2"/><text x="14" y="95.0" font-size="11" fill="#000" transform="rotate(-90 14 95.0)" text-anchor="middle">ms</text><polyline points="60.00,160.00 131.11,130.07 202.22,160.00 273.33,160.00 344.44,111.25 415.56,122.38 486.67,87.81 557.78,160.00 628.89,124.81 700.00,160.00" fill="none" stroke="#2ca02c" stroke-width="2"/><circle cx="60.00" cy="160.00" r="2.5" fill="#2ca02c"/><circle cx="131.11" cy="130.07" r="2.5" fill="#2ca02c"/><circle cx="202.22" cy="160.00" r="2.5" fill="#2ca02c"/><circle cx="273.33" cy="160.00" r="2.5" fill="#2ca02c"/><circle cx="344.44" cy="111.25" r="2.5" fill="#2ca02c"/><circle cx="415.56" cy="122.38" r="2.5" fill="#2ca02c"/><circle cx="486.67" cy="87.81" r="2.5" fill="#2ca02c"/><circle cx="557.78" cy="160.00" r="2.5" fill="#2ca02c"/><circle cx="628.89" cy="124.81" r="2.5" fill="#2ca02c"/><circle cx="700.00" cy="160.00" r="2.5" fill="#2ca02c"/><polyline points="60.00,160.00 131.11,130.07 202.22,160.00 273.33,160.00 344.44,111.25 415.56,100.82 486.67,46.96 557.78,160.00 628.89,124.81 700.00,160.00" fill="none" stroke="#2ca02c" stroke-width="2" stroke-dasharray="4,3"/><circle cx="60.00" cy="160.00" r="2.5" fill="#2ca02c"/><circle cx="131.11" cy="130.07" r="2.5" fill="#2ca02c"/><circle cx="202.22" cy="160.00" r="2.5" fill="#2ca02c"/><circle cx="273.33" cy="160.00" r="2.5" fill="#2ca02c"/><circle cx="344.44" cy="111.25" r="2.5" fill="#2ca02c"/><circle cx="415.56" cy="100.82" r="2.5" fill="#2ca02c"/><circle cx="486.67" cy="46.96" r="2.5" fill="#2ca02c"/><circle cx="557.78" cy="160.00" r="2.5" fill="#2ca02c"/><circle cx="628.89" cy="124.81" r="2.5" fill="#2ca02c"/><circle cx="700.00" cy="160.00" r="2.5" fill="#2ca02c"/><polyline points="60.00,160.00 131.11,118.50 202.22,139.40 273.33,140.92 344.44,116.23 415.56,107.83 486.67,160.00 557.78,122.83 628.89,128.66 700.00,120.58" fill="none" stroke="#d62728" stroke-width="2"/><circle cx="60.00" cy="160.00" r="2.5" fill="#d62728"/><circle cx="131.11" cy="118.50" r="2.5" fill="#d62728"/><circle cx="202.22" cy="139.40" r="2.5" fill="#d62728"/><circle cx="273.33" cy="140.92" r="2.5" fill="#d62728"/><circle cx="344.44" cy="116.23" r="2.5" fill="#d62728"/><circle cx="415.56" cy="107.83" r="2.5" fill="#d62728"/><circle cx="486.67" cy="160.00" r="2.5" fill="#d62728"/><circle cx="557.78" cy="122.83" r="2.5" fill="#d62728"/><circle cx="628.89" cy="128.66" r="2.5" fill="#d62728"/><circle cx="700.00" cy="120.58" r="2.5" fill="#d62728"/><polyline points="60.00,111.34 131.11,110.99 202.22,132.11 273.33,134.76 344.44,110.94 415.56,89.66 486.67,160.00 557.78,113.75 628.89,117.82 700.00,106.19" fill="none" stroke="#d62728" stroke-width="2" stroke-dasharray="4,3"/><circle cx="60.00" cy="111.34" r="2.5" fill="#d62728"/><circle cx="131.11" cy="110.99" r="2.5" fill="#d62728"/><circle cx="202.22" cy="132.11" r="2.5" fill="#d62728"/><circle cx="273.33" cy="134.76" r="2.5" fill="#d62728"/><circle cx="344.44" cy="110.94" r="2.5" fill="#d62728"/><circle cx="415.56" cy="89.66" r="2.5" fill="#d62728"/><circle cx="486.67" cy="160.00" r="2.5" fill="#d62728"/><circle cx="557.78" cy="113.75" r="2.5" fill="#d62728"/><circle cx="628.89" cy="117.82" r="2.5" fill="#d62728"/><circle cx="700.00" cy="106.19" r="2.5" fill="#d62728"/><line x1="400" y1="23" x2="416" y2="23" stroke="#2ca02c" stroke-width="2"/><text x="420" y="26" font-size="10" fill="#000">p50 passed</text><line x1="475" y1="23" x2="491" y2="23" stroke="#2ca02c" stroke-width="2" stroke-dasharray="4,3"/><text x="495" y="26" font-size="10" fill="#000">p95 passed</text><line x1="550" y1="23" x2="566" y2="23" stroke="#d62728" stroke-width="2"/><text x="570" y="26" font-size="10" fill="#000">p50 failed</text><line x1="625" y1="23" x2="641" y2="23" stroke="#d62728" stroke-width="2" stroke-dasharray="4,3"/><text x="645" y="26" font-size="10" fill="#000">p95 failed</text><text x="60.00" y="172" font-size="10" fill="#000" text-anchor="end" transform="rotate(-35 60.00 172)">master</text><text x="131.11" y="172" font-size="10" fill="#000" text-anchor="end" transform="rotate(-35 131.11 172)">feat-task2-benchmark-…</text><text x="202.22" y="172" font-size="10" fill="#000" text-anchor="end" transform="rotate(-35 202.22 172)">task2-implement-obser…</text><text x="273.33" y="172" font-size="10" fill="#000" text-anchor="end" transform="rotate(-35 273.33 172)">task2-scoreboard-time…</text><text x="344.44" y="172" font-size="10" fill="#000" text-anchor="end" transform="rotate(-35 344.44 172)">task2-implement-plan-…</text><text x="415.56" y="172" font-size="10" fill="#000" text-anchor="end" transform="rotate(-35 415.56 172)">task2-implement-cdp-s…</text><text x="486.67" y="172" font-size="10" fill="#000" text-anchor="end" transform="rotate(-35 486.67 172)">task2-implement-loop-…</text><text x="557.78" y="172" font-size="10" fill="#000" text-anchor="end" transform="rotate(-35 557.78 172)">task2-implement-plan-…</text><text x="628.89" y="172" font-size="10" fill="#000" text-anchor="end" transform="rotate(-35 628.89 172)">task2-implement-trace…</text><text x="700.00" y="172" font-size="10" fill="#000" text-anchor="end" transform="rotate(-35 700.00 172)">task2-implement-self-…</text></svg>