<svg xmlns="http://www.w3.org/2000/svg" viewBox="0 0 720 220" width="720" height="220" font-family="sans-serif"><rect width="100%" height="100%" fill="#fff"/><text x="60" y="18" font-size="13" font-weight="600">Pass rate over time</text><line x1="60" y1="30" x2="60" y2="160" stroke="#999"/><line x1="60" y1="160" x2="700" y2="160" stroke="#999"/><line x1="57" y1="160.0" x2="60" y2="160.0" stroke="#999"/><text x="54" y="164.0" font-size="10" text-anchor="end" fill="#000">0%</text><line x1="57" y1="95.0" x2="60" y2="95.0" stroke="#999"/><text x="54" y="99.0" font-size="10" text-anchor="end" fill="#000">50%</text><line x1="60" y1="95.0" x2="700" y2="95.0" stroke="#eee" stroke-dasharray="2,2"/><line x1="57" y1="30.0" x2="60" y2="30.0" stroke="#999"/><text x="54" y="34.0" font-size="10" text-anchor="end" fill="#000">100%</text><line x1="60" y1="30.0" x2="700" y2="30.0" stroke="#eee" stroke-dasharray="2,2"/><text x="14" y="95.0" font-size="11" fill="#000" transform="rotate(-90 14 95.0)" text-anchor="middle">pass %</text><rect x="64.57" y="160.00" width="21.33" height="0.00" fill="#2ca02c"/><text x="75.24" y="156.00" font-size="10" text-anchor="middle" fill="#000">0%</text><text x="75.24" y="172" font-size="10" fill="#000" text-anchor="end" transform="rotate(-35 75.24 172)">master</text><rect x="95.05" y="127.50" width="21.33" height="32.50" fill="#2ca02c"/><text x="105.71" y="123.50" font-size="10" text-anchor="middle" fill="#000">25%</text><text x="105.71" y="172" font-size="10" fill="#000" text-anchor="end" transform="rotate(-35 105.71 172)">feat-task2-benchmark-…</text><rect x="125.52" y="160.00" width="21.33" height="0.00" fill="#2ca02c"/><text x="136.19" y="156.00" font-size="10" text-anchor="middle" fill="#000">0%</text><text x="136.19" y="172" font-size="10" fill="#000" text-anchor="end" transform="rotate(-35 136.19 172)">task2-implement-obser…</text><rect x="156.00" y="160.00" width="21.33" height="0.00" fill="#2ca02c"/><text x="166.67" y="156.00" font-size="10" text-anchor="middle" fill="#000">0%</text><text x="166.67" y="172" font-size="10" fill="#000" text-anchor="end" transform="rotate(-35 166.67 172)">task2-scoreboard-time…</text><rect x="186.48" y="127.50" width="21.33" height="32.50" fill="#2ca02c"/><text x="197.14" y="123.50" font-size="10" text-anchor="middle" fill="#000">25%</text><text x="197.14" y="172" font-size="10" fill="#000" text-anchor="end" transform="rotate(-35 197.14 172)">task2-implement-plan-…</text><rect x="216.95" y="95.00" width="21.33" height="65.00" fill="#2ca02c"/><text x="227.62" y="91.00" font-size="10" text-anchor="middle" fill="#000">50%</text><text x="227.62" y="172" font-size="10" fill="#000" text-anchor="end" transform="rotate(-35 227.62 172)">task2-implement-cdp-s…</text><rect x="247.43" y="95.00" width="21.33" height="65.00" fill="#2ca02c"/><text x="258.10" y="91.00" font-size="10" text-anchor="middle" fill="#000">50%</text><text x="258.10" y="172" font-size="10" fill="#000" text-anchor="end" transform="rotate(-35 258.10 172)">task2-implement-loop-…</text><rect x="277.90" y="160.00" width="21.33" height="0.00" fill="#2ca02c"/><text x="288.57" y="156.00" font-size="10" text-anchor="middle" fill="#000">0%</text><text x="288.57" y="172" font-size="10" fill="#000" text-anchor="end" transform="rotate(-35 288.57 172)">task2-implement-plan-…</text><rect x="308.38" y="127.50" width="21.33" height="32.50" fill="#2ca02c"/><text x="319.05" y="123.50" font-size="10" text-anchor="middle" fill="#000">25%</text><text x="319.05" y="172" font-size="10" fill="#000" text-anchor="end" transform="rotate(-35 319.05 172)">task2-implement-trace…</text><rect x="338.86" y="160.00" width="21.33" height="0.00" fill="#2ca02c"/><text x="349.52" y="156.00" font-size="10" text-anchor="middle" fill="#000">0%</text><text x="349.52" y="172" font-size="10" fill="#000" text-anchor="end" transform="rotate(-35 349.52 172)">task2-implement-self-…</text><rect x="369.33" y="143.75" width="21.33" height="16.25" fill="#2ca02c"/><text x="380.00" y="139.75" font-size="10" text-anchor="middle" fill="#000">12%</text><text x="380.00" y="172" font-size="10" fill="#000" text-anchor="end" transform="rotate(-35 380.00 172)">task2-implement-loop-…</text><rect x="399.81" y="127.50" width="21.33" height="32.50" fill="#2ca02c"/><text x="410.48" y="123.50" font-size="10" text-anchor="middle" fill="#000">25%</text><text x="410.48" y="172" font-size="10" fill="#000" text-anchor="end" transform="rotate(-35 410.48 172)">task2-implement-trace…</text><rect x="430.29" y="143.75" width="21.33" height="16.25" fill="#2ca02c"/><text x="440.95" y="139.75" font-size="10" text-anchor="middle" fill="#000">12%</text><text x="440.95" y="172" font-size="10" fill="#000" text-anchor="end" transform="rotate(-35 440.95 172)">task2-implement-loop-…</text><rect x="460.76" y="143.75" width="21.33" height="16.25" fill="#2ca02c"/><text x="471.43" y="139.75" font-size="10" text-anchor="middle" fill="#000">12%</text><text x="471.43" y="172" font-size="10" fill="#000" text-anchor="end" transform="rotate(-35 471.43 172)">task2-implement-failu…</text><rect x="491.24" y="143.75" width="21.33" height="16.25" fill="#2ca02c"/><text x="501.90" y="139.75" font-size="10" text-anchor="middle" fill="#000">12%</text><text x="501.90" y="172" font-size="10" fill="#000" text-anchor="end" transform="rotate(-35 501.90 172)">task2-fix-mechanism-f…</text><rect x="521.71" y="111.25" width="21.33" height="48.75" fill="#2ca02c"/><text x="532.38" y="107.25" font-size="10" text-anchor="middle" fill="#000">38%</text><text x="532.38" y="172" font-size="10" fill="#000" text-anchor="end" transform="rotate(-35 532.38 172)">task2-fix-llm-model-d…</text><rect x="552.19" y="127.50" width="21.33" height="32.50" fill="#2ca02c"/><text x="562.86" y="123.50" font-size="10" text-anchor="middle" fill="#000">25%</text><text x="562.86" y="172" font-size="10" fill="#000" text-anchor="end" transform="rotate(-35 562.86 172)">task2-fix-run-agent-t…</text><rect x="582.67" y="127.50" width="21.33" height="32.50" fill="#2ca02c"/><text x="593.33" y="123.50" font-size="10" text-anchor="middle" fill="#000">25%</text><text x="593.33" y="172" font-size="10" fill="#000" text-anchor="end" transform="rotate(-35 593.33 172)">task2-fix-escalation-…</text><rect x="613.14" y="160.00" width="21.33" height="0.00" fill="#2ca02c"/><text x="623.81" y="156.00" font-size="10" text-anchor="middle" fill="#000">0%</text><text x="623.81" y="172" font-size="10" fill="#000" text-anchor="end" transform="rotate(-35 623.81 172)">task2-implement-score…</text><rect x="643.62" y="143.75" width="21.33" height="16.25" fill="#2ca02c"/><text x="654.29" y="139.75" font-size="10" text-anchor="middle" fill="#000">12%</text><text x="654.29" y="172" font-size="10" fill="#000" text-anchor="end" transform="rotate(-35 654.29 172)">task2-implement-skip-…</text><rect x="674.10" y="160.00" width="21.33" height="0.00" fill="#2ca02c"/><text x="684.76" y="156.00" font-size="10" text-anchor="middle" fill="#000">0%</text><text x="684.76" y="172" font-size="10" fill="#000" text-anchor="end" transform="rotate(-35 684.76 172)">task2-implement-bench…</text></svg>